<svg width="140.00000956mm" height="64.5000107mm" viewBox="0 0 55118114 25393705"  version="1.1" xmlns="http://www.w3.org/2000/svg" xmlns:xlink="http://www.w3.org/1999/xlink">
<desc>
Origin 49212598 49212598 Bound 49212595 49212594 55118114 25393705
</desc>
<g fill-rule="evenodd" fill="rgb(128, 0, 128)" stroke="black" stroke-width="1" transform="translate(0, 25393705) scale(1, -1) translate(-49212595, -49212594)">
<path id="N" d="M 104330709.00 49212598.00 L 54921259.00 49212594.00 L 54921259.00 57696850.00 L 49212595.00 57696850.00 L 49212598.00 74606299.00 L 104330708.00 74606299.00 L 104330709.00 49212598.00  zM 51181739.00 59205114.00 L 49920637.00 59205114.00 L 49920637.00 58337712.00 L 51181739.00 58337712.00 L 51181739.00 59205114.00  zM 56227956.58 53790123.72 m -673195.28 0 a 673195.28 673195.28 0 1 1 1346390.57 0a 673195.28 673195.28 0 1 1 -1346390.57 0M 51181739.00 60838966.00 L 49920637.00 60838966.00 L 49920637.00 59971564.00 L 51181739.00 59971564.00 L 51181739.00 60838966.00  zM 54410071.00 59205114.00 L 53148969.00 59205114.00 L 53148969.00 58337712.00 L 54410071.00 58337712.00 L 54410071.00 59205114.00  zM 54410071.00 60838966.00 L 53148969.00 60838966.00 L 53148969.00 59971564.00 L 54410071.00 59971564.00 L 54410071.00 60838966.00  zM 53505188.00 61841181.00 L 53031488.00 61841181.00 L 53031488.00 61269055.00 L 53505188.00 61269055.00 L 53505188.00 61841181.00  zM 54292590.00 61841181.00 L 53818890.00 61841181.00 L 53818890.00 61269055.00 L 54292590.00 61269055.00 L 54292590.00 61841181.00  zM 57047874.00 50324805.00 L 56475748.00 50324805.00 L 56475748.00 49851105.00 L 57047874.00 49851105.00 L 57047874.00 50324805.00  zM 58837711.00 50601027.00 L 57576609.00 50601027.00 L 57576609.00 49733625.00 L 58837711.00 49733625.00 L 58837711.00 50601027.00  zM 62066043.00 50601027.00 L 60804941.00 50601027.00 L 60804941.00 49733625.00 L 62066043.00 49733625.00 L 62066043.00 50601027.00  zM 57047874.00 51112207.00 L 56475748.00 51112207.00 L 56475748.00 50638507.00 L 57047874.00 50638507.00 L 57047874.00 51112207.00  zM 58837711.00 52234879.00 L 57576609.00 52234879.00 L 57576609.00 51367477.00 L 58837711.00 51367477.00 L 58837711.00 52234879.00  zM 60816931.71 58592510.13 m -437452.87 0 a 437452.87 437452.87 0 1 1 874905.73 0a 437452.87 437452.87 0 1 1 -874905.73 0M 51181739.00 64652085.00 L 49920637.00 64652085.00 L 49920637.00 63784683.00 L 51181739.00 63784683.00 L 51181739.00 64652085.00  zM 51181739.00 66285937.00 L 49920637.00 66285937.00 L 49920637.00 65418535.00 L 51181739.00 65418535.00 L 51181739.00 66285937.00  zM 53505182.00 67293937.00 L 53031482.00 67293937.00 L 53031482.00 66721811.00 L 53505182.00 66721811.00 L 53505182.00 67293937.00  zM 50866143.71 69596444.13 m -437452.87 0 a 437452.87 437452.87 0 1 1 874905.73 0a 437452.87 437452.87 0 1 1 -874905.73 0M 50866143.71 71368098.13 m -437452.87 0 a 437452.87 437452.87 0 1 1 874905.73 0a 437452.87 437452.87 0 1 1 -874905.73 0M 50334645.28 73503942.39 m -1029202.61 0 a 1029202.61 1029202.61 0 1 1 2058405.22 0a 1029202.61 1029202.61 0 1 1 -2058405.22 0M 53425199.68 71368090.80 m -437460.20 0 a 437460.20 437460.20 0 1 1 874920.41 0a 437460.20 437460.20 0 1 1 -874920.41 0M 54410071.00 64652085.00 L 53148969.00 64652085.00 L 53148969.00 63784683.00 L 54410071.00 63784683.00 L 54410071.00 64652085.00  zM 54410071.00 66285937.00 L 53148969.00 66285937.00 L 53148969.00 65418535.00 L 54410071.00 65418535.00 L 54410071.00 66285937.00  zM 54292584.00 67293937.00 L 53818884.00 67293937.00 L 53818884.00 66721811.00 L 54292584.00 66721811.00 L 54292584.00 67293937.00  zM 53425199.68 69596436.80 m -437460.20 0 a 437460.20 437460.20 0 1 1 874920.41 0a 437460.20 437460.20 0 1 1 -874920.41 0M 56227956.58 73640123.72 m -673195.28 0 a 673195.28 673195.28 0 1 1 1346390.57 0a 673195.28 673195.28 0 1 1 -1346390.57 0M 59822237.62 69242114.02 m -633575.98 0 a 633575.98 633575.98 0 1 1 1267151.97 0a 633575.98 633575.98 0 1 1 -1267151.97 0M 67663672.00 50601027.00 L 66402570.00 50601027.00 L 66402570.00 49733625.00 L 67663672.00 49733625.00 L 67663672.00 50601027.00  zM 67663672.00 52234879.00 L 66402570.00 52234879.00 L 66402570.00 51367477.00 L 67663672.00 51367477.00 L 67663672.00 52234879.00  zM 70892004.00 50601027.00 L 69630902.00 50601027.00 L 69630902.00 49733625.00 L 70892004.00 49733625.00 L 70892004.00 50601027.00  zM 71860866.00 50324808.00 L 71288740.00 50324808.00 L 71288740.00 49851108.00 L 71860866.00 49851108.00 L 71860866.00 50324808.00  zM 71860866.00 51112210.00 L 71288740.00 51112210.00 L 71288740.00 50638510.00 L 71860866.00 50638510.00 L 71860866.00 51112210.00  zM 76489633.00 50601027.00 L 75228531.00 50601027.00 L 75228531.00 49733625.00 L 76489633.00 49733625.00 L 76489633.00 50601027.00  zM 79717965.00 50601027.00 L 78456863.00 50601027.00 L 78456863.00 49733625.00 L 79717965.00 49733625.00 L 79717965.00 50601027.00  zM 62066043.00 52234879.00 L 60804941.00 52234879.00 L 60804941.00 51367477.00 L 62066043.00 51367477.00 L 62066043.00 52234879.00  zM 70892004.00 52234879.00 L 69630902.00 52234879.00 L 69630902.00 51367477.00 L 70892004.00 51367477.00 L 70892004.00 52234879.00  zM 76489633.00 52234879.00 L 75228531.00 52234879.00 L 75228531.00 51367477.00 L 76489633.00 51367477.00 L 76489633.00 52234879.00  zM 70118113.68 56722423.80 m -437460.20 0 a 437460.20 437460.20 0 1 1 874920.41 0a 437460.20 437460.20 0 1 1 -874920.41 0M 70118113.68 58828722.80 m -437460.20 0 a 437460.20 437460.20 0 1 1 874920.41 0a 437460.20 437460.20 0 1 1 -874920.41 0M 68130826.00 69872639.00 L 67500274.00 69872639.00 L 67184999.00 69557363.00 L 67184999.00 68926813.00 L 67500274.00 68611537.00 L 68130826.00 68611537.00 L 68446101.00 68926813.00 L 68446101.00 69557363.00 L 68130826.00 69872639.00  zM 80738818.00 50324808.00 L 80166692.00 50324808.00 L 80166692.00 49851108.00 L 80738818.00 49851108.00 L 80738818.00 50324808.00  zM 80738818.00 51112210.00 L 80166692.00 51112210.00 L 80166692.00 50638510.00 L 80738818.00 50638510.00 L 80738818.00 51112210.00  zM 83534094.00 50324805.00 L 82961968.00 50324805.00 L 82961968.00 49851105.00 L 83534094.00 49851105.00 L 83534094.00 50324805.00  zM 83534094.00 51112207.00 L 82961968.00 51112207.00 L 82961968.00 50638507.00 L 83534094.00 50638507.00 L 83534094.00 51112207.00  zM 85315594.00 50601027.00 L 84054492.00 50601027.00 L 84054492.00 49733625.00 L 85315594.00 49733625.00 L 85315594.00 50601027.00  zM 88543926.00 50601027.00 L 87282824.00 50601027.00 L 87282824.00 49733625.00 L 88543926.00 49733625.00 L 88543926.00 50601027.00  zM 79717965.00 52234879.00 L 78456863.00 52234879.00 L 78456863.00 51367477.00 L 79717965.00 51367477.00 L 79717965.00 52234879.00  zM 85315594.00 52234879.00 L 84054492.00 52234879.00 L 84054492.00 51367477.00 L 85315594.00 51367477.00 L 85315594.00 52234879.00  zM 88543926.00 52234879.00 L 87282824.00 52234879.00 L 87282824.00 51367477.00 L 88543926.00 51367477.00 L 88543926.00 52234879.00  zM 89498031.01 58240152.89 m -377882.11 0 a 377882.11 377882.11 0 1 1 755764.21 0a 377882.11 377882.11 0 1 1 -755764.21 0M 80836613.00 68090547.00 L 79655511.00 68090547.00 L 79655511.00 59035429.00 L 80836613.00 59035429.00 L 80836613.00 68090547.00  zM 89557085.00 67558470.00 L 89438975.00 67558470.00 A 318311.35 318311.35 0 0 1 89438975.00 66921844.00 L 89557085.00 66921844.00 A 318311.35 318311.35 0 0 1 89557085.00 67558470.00  zM 90046854.58 53790123.72 m -673195.28 0 a 673195.28 673195.28 0 1 1 1346390.57 0a 673195.28 673195.28 0 1 1 -1346390.57 0M 89498031.01 55240152.89 m -377882.11 0 a 377882.11 377882.11 0 1 1 755764.21 0a 377882.11 377882.11 0 1 1 -755764.21 0M 89498031.01 56240152.89 m -377882.11 0 a 377882.11 377882.11 0 1 1 755764.21 0a 377882.11 377882.11 0 1 1 -755764.21 0M 89498031.01 57240152.89 m -377882.11 0 a 377882.11 377882.11 0 1 1 755764.21 0a 377882.11 377882.11 0 1 1 -755764.21 0M 89498031.01 59240152.89 m -377882.11 0 a 377882.11 377882.11 0 1 1 755764.21 0a 377882.11 377882.11 0 1 1 -755764.21 0M 90498031.01 59240152.89 m -377882.11 0 a 377882.11 377882.11 0 1 1 755764.21 0a 377882.11 377882.11 0 1 1 -755764.21 0M 90498031.01 58240152.89 m -377882.11 0 a 377882.11 377882.11 0 1 1 755764.21 0a 377882.11 377882.11 0 1 1 -755764.21 0M 90498031.01 55240152.89 m -377882.11 0 a 377882.11 377882.11 0 1 1 755764.21 0a 377882.11 377882.11 0 1 1 -755764.21 0M 90498031.01 57240152.89 m -377882.11 0 a 377882.11 377882.11 0 1 1 755764.21 0a 377882.11 377882.11 0 1 1 -755764.21 0M 90498031.01 60240152.89 m -377882.11 0 a 377882.11 377882.11 0 1 1 755764.21 0a 377882.11 377882.11 0 1 1 -755764.21 0M 90498031.01 56240152.89 m -377882.11 0 a 377882.11 377882.11 0 1 1 755764.21 0a 377882.11 377882.11 0 1 1 -755764.21 0M 97704127.58 58159825.77 m -2997390.23 0 a 2997390.23 2997390.23 0 1 1 5994780.47 0a 2997390.23 2997390.23 0 1 1 -5994780.47 0M 103217578.28 50443304.39 m -1029202.61 0 a 1029202.61 1029202.61 0 1 1 2058405.22 0a 1029202.61 1029202.61 0 1 1 -2058405.22 0M 89498031.01 60240152.89 m -377882.11 0 a 377882.11 377882.11 0 1 1 755764.21 0a 377882.11 377882.11 0 1 1 -755764.21 0M 89498031.01 61240152.89 m -377882.11 0 a 377882.11 377882.11 0 1 1 755764.21 0a 377882.11 377882.11 0 1 1 -755764.21 0M 89498031.01 62240152.89 m -377882.11 0 a 377882.11 377882.11 0 1 1 755764.21 0a 377882.11 377882.11 0 1 1 -755764.21 0M 89557085.00 63558470.00 L 89438975.00 63558470.00 A 318311.35 318311.35 0 1 1 89438975.00 62921844.00 L 89557085.00 62921844.00 A 318311.35 318311.35 0 0 1 89557085.00 63558470.00  zM 90498031.01 62240152.89 m -377882.11 0 a 377882.11 377882.11 0 1 1 755764.21 0a 377882.11 377882.11 0 1 1 -755764.21 0M 89557085.00 64558470.00 L 89438975.00 64558470.00 A 318311.35 318311.35 0 1 1 89438975.00 63921844.00 L 89557085.00 63921844.00 A 318311.35 318311.35 0 0 1 89557085.00 64558470.00  zM 90498031.01 61240152.89 m -377882.11 0 a 377882.11 377882.11 0 1 1 755764.21 0a 377882.11 377882.11 0 1 1 -755764.21 0M 90557085.00 63558470.00 L 90438975.00 63558470.00 A 318311.35 318311.35 0 1 1 90438975.00 62921844.00 L 90557085.00 62921844.00 A 318311.35 318311.35 0 1 1 90557085.00 63558470.00  zM 90557085.00 64558470.00 L 90438975.00 64558470.00 A 318311.35 318311.35 0 1 1 90438975.00 63921844.00 L 90557085.00 63921844.00 A 318311.35 318311.35 0 1 1 90557085.00 64558470.00  zM 96071496.00 65433701.00 L 95204094.00 65433701.00 L 95204094.00 64566299.00 L 96071496.00 64566299.00 L 96071496.00 65433701.00  zM 97637797.71 64999990.13 m -437452.87 0 a 437452.87 437452.87 0 1 1 874905.73 0a 437452.87 437452.87 0 1 1 -874905.73 0M 99637797.71 64999990.13 m -437452.87 0 a 437452.87 437452.87 0 1 1 874905.73 0a 437452.87 437452.87 0 1 1 -874905.73 0M 89537400.00 65578325.00 L 89458660.00 65578325.00 A 338174.95 338174.95 0 0 1 89458660.00 64901989.00 L 89537400.00 64901989.00 A 338174.95 338174.95 0 0 1 89537400.00 65578325.00  zM 89557085.00 66558470.00 L 89438975.00 66558470.00 A 318311.35 318311.35 0 0 1 89438975.00 65921844.00 L 89557085.00 65921844.00 A 318311.35 318311.35 0 0 1 89557085.00 66558470.00  zM 90537400.00 65578325.00 L 90458660.00 65578325.00 A 338174.95 338174.95 0 0 1 90458660.00 64901989.00 L 90537400.00 64901989.00 A 338174.95 338174.95 0 0 1 90537400.00 65578325.00  zM 90557085.00 66558470.00 L 90438975.00 66558470.00 A 318311.35 318311.35 0 0 1 90438975.00 65921844.00 L 90557085.00 65921844.00 A 318311.35 318311.35 0 0 1 90557085.00 66558470.00  zM 89498031.01 68240152.89 m -377882.11 0 a 377882.11 377882.11 0 1 1 755764.21 0a 377882.11 377882.11 0 1 1 -755764.21 0M 90557085.00 67558470.00 L 90438975.00 67558470.00 A 318311.35 318311.35 0 0 1 90438975.00 66921844.00 L 90557085.00 66921844.00 A 318311.35 318311.35 0 0 1 90557085.00 67558470.00  zM 90498031.01 68240152.89 m -377882.11 0 a 377882.11 377882.11 0 1 1 755764.21 0a 377882.11 377882.11 0 1 1 -755764.21 0M 89557085.00 69558470.00 L 89438975.00 69558470.00 A 318311.35 318311.35 0 1 1 89438975.00 68921844.00 L 89557085.00 68921844.00 A 318311.35 318311.35 0 0 1 89557085.00 69558470.00  zM 89557085.00 70558470.00 L 89438975.00 70558470.00 A 318311.35 318311.35 0 0 1 89438975.00 69921844.00 L 89557085.00 69921844.00 A 318311.35 318311.35 0 0 1 89557085.00 70558470.00  zM 90498031.01 69240152.89 m -377882.11 0 a 377882.11 377882.11 0 1 1 755764.21 0a 377882.11 377882.11 0 1 1 -755764.21 0M 89498031.01 71240152.89 m -377882.11 0 a 377882.11 377882.11 0 1 1 755764.21 0a 377882.11 377882.11 0 1 1 -755764.21 0M 89872675.00 72614802.00 L 89123385.00 72614802.00 L 89123385.00 71865512.00 L 89872675.00 71865512.00 L 89872675.00 72614802.00  zM 90046854.58 73640123.72 m -673195.28 0 a 673195.28 673195.28 0 1 1 1346390.57 0a 673195.28 673195.28 0 1 1 -1346390.57 0M 94606511.00 68651892.00 L 94173439.00 68651892.00 A 221427.33 221427.33 0 0 1 93952019.00 68430472.00 L 93952019.00 68076142.00 A 221427.33 221427.33 0 0 1 94173439.00 67854722.00 L 94606511.00 67854722.00 A 221427.33 221427.33 0 0 1 94827931.00 68076142.00 L 94827931.00 68430472.00 A 221427.33 221427.33 0 0 1 94606511.00 68651892.00  zM 94606511.00 69636144.00 L 94173439.00 69636144.00 A 221427.33 221427.33 0 0 1 93952019.00 69414724.00 L 93952019.00 69060394.00 A 221427.33 221427.33 0 0 1 94173439.00 68838974.00 L 94606511.00 68838974.00 A 221427.33 221427.33 0 0 1 94827931.00 69060394.00 L 94827931.00 69414724.00 A 221427.33 221427.33 0 0 1 94606511.00 69636144.00  zM 94606511.00 70620396.00 L 94173439.00 70620396.00 A 221427.33 221427.33 0 0 1 93952019.00 70398976.00 L 93952019.00 70044646.00 A 221427.33 221427.33 0 0 1 94173439.00 69823226.00 L 94606511.00 69823226.00 A 221427.33 221427.33 0 0 1 94827931.00 70044646.00 L 94827931.00 70398976.00 A 221427.33 221427.33 0 0 1 94606511.00 70620396.00  zM 90557085.00 70558470.00 L 90438975.00 70558470.00 A 318311.35 318311.35 0 0 1 90438975.00 69921844.00 L 90557085.00 69921844.00 A 318311.35 318311.35 0 0 1 90557085.00 70558470.00  zM 90557085.00 71558470.00 L 90438975.00 71558470.00 A 318311.35 318311.35 0 1 1 90438975.00 70921844.00 L 90557085.00 70921844.00 A 318311.35 318311.35 0 1 1 90557085.00 71558470.00  zM 90498031.01 72240152.89 m -377882.11 0 a 377882.11 377882.11 0 1 1 755764.21 0a 377882.11 377882.11 0 1 1 -755764.21 0M 96637797.71 64999990.13 m -437452.87 0 a 437452.87 437452.87 0 1 1 874905.73 0a 437452.87 437452.87 0 1 1 -874905.73 0M 98637797.71 64999990.13 m -437452.87 0 a 437452.87 437452.87 0 1 1 874905.73 0a 437452.87 437452.87 0 1 1 -874905.73 0M 101102568.00 68651892.00 L 100669496.00 68651892.00 A 221427.33 221427.33 0 0 1 100448076.00 68430472.00 L 100448076.00 68076142.00 A 221427.33 221427.33 0 0 1 100669496.00 67854722.00 L 101102568.00 67854722.00 A 221427.33 221427.33 0 0 1 101323988.00 68076142.00 L 101323988.00 68430472.00 A 221427.33 221427.33 0 0 1 101102568.00 68651892.00  zM 97706906.67 69237545.02 m -2012828.98 0 a 2012828.98 2012828.98 0 1 1 4025657.96 0a 2012828.98 2012828.98 0 1 1 -4025657.96 0M 101102568.00 70620395.00 L 100669496.00 70620395.00 A 221427.33 221427.33 0 0 1 100448076.00 70398975.00 L 100448076.00 70044645.00 A 221427.33 221427.33 0 0 1 100669496.00 69823225.00 L 101102568.00 69823225.00 A 221427.33 221427.33 0 0 1 101323988.00 70044645.00 L 101323988.00 70398975.00 A 221427.33 221427.33 0 0 1 101102568.00 70620395.00  zM 103217578.28 73503942.39 m -1029202.61 0 a 1029202.61 1029202.61 0 1 1 2058405.22 0a 1029202.61 1029202.61 0 1 1 -2058405.22 0"/>
</g>
</svg>
