<svg width="140.00000956mm" height="64.5000107mm" viewBox="0 0 55118114 25393705"  version="1.1" xmlns="http://www.w3.org/2000/svg" xmlns:xlink="http://www.w3.org/1999/xlink">
<desc>
Origin 49212598 49212598 Bound 49212595 49212594 55118114 25393705
</desc>
<g fill-rule="evenodd" fill="rgb(255, 0, 255)" stroke="black" stroke-width="1" transform="translate(0, 25393705) scale(1, -1) translate(-49212595, -49212594)">
<path id="N" d="M 104330709.00 49212598.00 L 54921259.00 49212594.00 L 54921259.00 57696850.00 L 49212595.00 57696850.00 L 49212598.00 74606299.00 L 104330708.00 74606299.00 L 104330709.00 49212598.00  zM 57525590.00 52330501.00 L 57289370.00 52330501.00 A 161201.22 161201.22 0 0 1 57128162.00 52169293.00 L 57128162.00 51224411.00 A 161201.22 161201.22 0 0 1 57289370.00 51063203.00 L 57525590.00 51063203.00 A 161201.22 161201.22 0 0 1 57686798.00 51224411.00 L 57686798.00 52169293.00 A 161201.22 161201.22 0 0 1 57525590.00 52330501.00  zM 58525590.00 52330501.00 L 58289370.00 52330501.00 A 161201.22 161201.22 0 0 1 58128162.00 52169293.00 L 58128162.00 51224411.00 A 161201.22 161201.22 0 0 1 58289370.00 51063203.00 L 58525590.00 51063203.00 A 161201.22 161201.22 0 0 1 58686798.00 51224411.00 L 58686798.00 52169293.00 A 161201.22 161201.22 0 0 1 58525590.00 52330501.00  zM 56227956.58 53790123.72 m -673195.28 0 a 673195.28 673195.28 0 1 1 1346390.57 0a 673195.28 673195.28 0 1 1 -1346390.57 0M 57525590.00 54511601.00 L 57289370.00 54511601.00 A 161201.22 161201.22 0 0 1 57128162.00 54350393.00 L 57128162.00 53405511.00 A 161201.22 161201.22 0 0 1 57289370.00 53244303.00 L 57525590.00 53244303.00 A 161201.22 161201.22 0 0 1 57686798.00 53405511.00 L 57686798.00 54350393.00 A 161201.22 161201.22 0 0 1 57525590.00 54511601.00  zM 58525590.00 54511601.00 L 58289370.00 54511601.00 A 161201.22 161201.22 0 0 1 58128162.00 54350393.00 L 58128162.00 53405511.00 A 161201.22 161201.22 0 0 1 58289370.00 53244303.00 L 58525590.00 53244303.00 A 161201.22 161201.22 0 0 1 58686798.00 53405511.00 L 58686798.00 54350393.00 A 161201.22 161201.22 0 0 1 58525590.00 54511601.00  zM 59525590.00 52330501.00 L 59289370.00 52330501.00 A 161201.22 161201.22 0 0 1 59128162.00 52169293.00 L 59128162.00 51224411.00 A 161201.22 161201.22 0 0 1 59289370.00 51063203.00 L 59525590.00 51063203.00 A 161201.22 161201.22 0 0 1 59686798.00 51224411.00 L 59686798.00 52169293.00 A 161201.22 161201.22 0 0 1 59525590.00 52330501.00  zM 60525590.00 52330501.00 L 60289370.00 52330501.00 A 161201.22 161201.22 0 0 1 60128162.00 52169293.00 L 60128162.00 51224411.00 A 161201.22 161201.22 0 0 1 60289370.00 51063203.00 L 60525590.00 51063203.00 A 161201.22 161201.22 0 0 1 60686798.00 51224411.00 L 60686798.00 52169293.00 A 161201.22 161201.22 0 0 1 60525590.00 52330501.00  zM 60525590.00 54511601.00 L 60289370.00 54511601.00 A 161201.22 161201.22 0 0 1 60128162.00 54350393.00 L 60128162.00 53405511.00 A 161201.22 161201.22 0 0 1 60289370.00 53244303.00 L 60525590.00 53244303.00 A 161201.22 161201.22 0 0 1 60686798.00 53405511.00 L 60686798.00 54350393.00 A 161201.22 161201.22 0 0 1 60525590.00 54511601.00  zM 61525590.00 52330501.00 L 61289370.00 52330501.00 A 161201.22 161201.22 0 0 1 61128162.00 52169293.00 L 61128162.00 51224411.00 A 161201.22 161201.22 0 0 1 61289370.00 51063203.00 L 61525590.00 51063203.00 A 161201.22 161201.22 0 0 1 61686798.00 51224411.00 L 61686798.00 52169293.00 A 161201.22 161201.22 0 0 1 61525590.00 52330501.00  zM 62525590.00 52330501.00 L 62289370.00 52330501.00 A 161201.22 161201.22 0 0 1 62128162.00 52169293.00 L 62128162.00 51224411.00 A 161201.22 161201.22 0 0 1 62289370.00 51063203.00 L 62525590.00 51063203.00 A 161201.22 161201.22 0 0 1 62686798.00 51224411.00 L 62686798.00 52169293.00 A 161201.22 161201.22 0 0 1 62525590.00 52330501.00  zM 63525590.00 52330501.00 L 63289370.00 52330501.00 A 161201.22 161201.22 0 0 1 63128162.00 52169293.00 L 63128162.00 51224411.00 A 161201.22 161201.22 0 0 1 63289370.00 51063203.00 L 63525590.00 51063203.00 A 161201.22 161201.22 0 0 1 63686798.00 51224411.00 L 63686798.00 52169293.00 A 161201.22 161201.22 0 0 1 63525590.00 52330501.00  zM 64525590.00 52330501.00 L 64289370.00 52330501.00 A 161201.22 161201.22 0 0 1 64128162.00 52169293.00 L 64128162.00 51224411.00 A 161201.22 161201.22 0 0 1 64289370.00 51063203.00 L 64525590.00 51063203.00 A 161201.22 161201.22 0 0 1 64686798.00 51224411.00 L 64686798.00 52169293.00 A 161201.22 161201.22 0 0 1 64525590.00 52330501.00  zM 65525590.00 52330501.00 L 65289370.00 52330501.00 A 161201.22 161201.22 0 0 1 65128162.00 52169293.00 L 65128162.00 51224411.00 A 161201.22 161201.22 0 0 1 65289370.00 51063203.00 L 65525590.00 51063203.00 A 161201.22 161201.22 0 0 1 65686798.00 51224411.00 L 65686798.00 52169293.00 A 161201.22 161201.22 0 0 1 65525590.00 52330501.00  zM 66525590.00 52330501.00 L 66289370.00 52330501.00 A 161201.22 161201.22 0 0 1 66128162.00 52169293.00 L 66128162.00 51224411.00 A 161201.22 161201.22 0 0 1 66289370.00 51063203.00 L 66525590.00 51063203.00 A 161201.22 161201.22 0 0 1 66686798.00 51224411.00 L 66686798.00 52169293.00 A 161201.22 161201.22 0 0 1 66525590.00 52330501.00  zM 65525590.00 54511601.00 L 65289370.00 54511601.00 A 161201.22 161201.22 0 0 1 65128162.00 54350393.00 L 65128162.00 53405511.00 A 161201.22 161201.22 0 0 1 65289370.00 53244303.00 L 65525590.00 53244303.00 A 161201.22 161201.22 0 0 1 65686798.00 53405511.00 L 65686798.00 54350393.00 A 161201.22 161201.22 0 0 1 65525590.00 54511601.00  zM 67527129.00 52330501.00 L 67290909.00 52330501.00 A 161201.22 161201.22 0 0 1 67129701.00 52169293.00 L 67129701.00 51224411.00 A 161201.22 161201.22 0 0 1 67290909.00 51063203.00 L 67527129.00 51063203.00 A 161201.22 161201.22 0 0 1 67688337.00 51224411.00 L 67688337.00 52169293.00 A 161201.22 161201.22 0 0 1 67527129.00 52330501.00  zM 68527129.00 52330501.00 L 68290909.00 52330501.00 A 161201.22 161201.22 0 0 1 68129701.00 52169293.00 L 68129701.00 51224411.00 A 161201.22 161201.22 0 0 1 68290909.00 51063203.00 L 68527129.00 51063203.00 A 161201.22 161201.22 0 0 1 68688337.00 51224411.00 L 68688337.00 52169293.00 A 161201.22 161201.22 0 0 1 68527129.00 52330501.00  zM 66525590.00 54511601.00 L 66289370.00 54511601.00 A 161201.22 161201.22 0 0 1 66128162.00 54350393.00 L 66128162.00 53405511.00 A 161201.22 161201.22 0 0 1 66289370.00 53244303.00 L 66525590.00 53244303.00 A 161201.22 161201.22 0 0 1 66686798.00 53405511.00 L 66686798.00 54350393.00 A 161201.22 161201.22 0 0 1 66525590.00 54511601.00  zM 69527129.00 52330501.00 L 69290909.00 52330501.00 A 161201.22 161201.22 0 0 1 69129701.00 52169293.00 L 69129701.00 51224411.00 A 161201.22 161201.22 0 0 1 69290909.00 51063203.00 L 69527129.00 51063203.00 A 161201.22 161201.22 0 0 1 69688337.00 51224411.00 L 69688337.00 52169293.00 A 161201.22 161201.22 0 0 1 69527129.00 52330501.00  zM 70527129.00 52330501.00 L 70290909.00 52330501.00 A 161201.22 161201.22 0 0 1 70129701.00 52169293.00 L 70129701.00 51224411.00 A 161201.22 161201.22 0 0 1 70290909.00 51063203.00 L 70527129.00 51063203.00 A 161201.22 161201.22 0 0 1 70688337.00 51224411.00 L 70688337.00 52169293.00 A 161201.22 161201.22 0 0 1 70527129.00 52330501.00  zM 59525590.00 54511601.00 L 59289370.00 54511601.00 A 161201.22 161201.22 0 0 1 59128162.00 54350393.00 L 59128162.00 53405511.00 A 161201.22 161201.22 0 0 1 59289370.00 53244303.00 L 59525590.00 53244303.00 A 161201.22 161201.22 0 0 1 59686798.00 53405511.00 L 59686798.00 54350393.00 A 161201.22 161201.22 0 0 1 59525590.00 54511601.00  zM 61525590.00 54511601.00 L 61289370.00 54511601.00 A 161201.22 161201.22 0 0 1 61128162.00 54350393.00 L 61128162.00 53405511.00 A 161201.22 161201.22 0 0 1 61289370.00 53244303.00 L 61525590.00 53244303.00 A 161201.22 161201.22 0 0 1 61686798.00 53405511.00 L 61686798.00 54350393.00 A 161201.22 161201.22 0 0 1 61525590.00 54511601.00  zM 62525590.00 54511601.00 L 62289370.00 54511601.00 A 161201.22 161201.22 0 0 1 62128162.00 54350393.00 L 62128162.00 53405511.00 A 161201.22 161201.22 0 0 1 62289370.00 53244303.00 L 62525590.00 53244303.00 A 161201.22 161201.22 0 0 1 62686798.00 53405511.00 L 62686798.00 54350393.00 A 161201.22 161201.22 0 0 1 62525590.00 54511601.00  zM 63525590.00 54511601.00 L 63289370.00 54511601.00 A 161201.22 161201.22 0 0 1 63128162.00 54350393.00 L 63128162.00 53405511.00 A 161201.22 161201.22 0 0 1 63289370.00 53244303.00 L 63525590.00 53244303.00 A 161201.22 161201.22 0 0 1 63686798.00 53405511.00 L 63686798.00 54350393.00 A 161201.22 161201.22 0 0 1 63525590.00 54511601.00  zM 60816931.71 58592510.13 m -437452.87 0 a 437452.87 437452.87 0 1 1 874905.73 0a 437452.87 437452.87 0 1 1 -874905.73 0M 64525590.00 54511601.00 L 64289370.00 54511601.00 A 161201.22 161201.22 0 0 1 64128162.00 54350393.00 L 64128162.00 53405511.00 A 161201.22 161201.22 0 0 1 64289370.00 53244303.00 L 64525590.00 53244303.00 A 161201.22 161201.22 0 0 1 64686798.00 53405511.00 L 64686798.00 54350393.00 A 161201.22 161201.22 0 0 1 64525590.00 54511601.00  zM 67527129.00 54511601.00 L 67290909.00 54511601.00 A 161201.22 161201.22 0 0 1 67129701.00 54350393.00 L 67129701.00 53405511.00 A 161201.22 161201.22 0 0 1 67290909.00 53244303.00 L 67527129.00 53244303.00 A 161201.22 161201.22 0 0 1 67688337.00 53405511.00 L 67688337.00 54350393.00 A 161201.22 161201.22 0 0 1 67527129.00 54511601.00  zM 68527129.00 54511601.00 L 68290909.00 54511601.00 A 161201.22 161201.22 0 0 1 68129701.00 54350393.00 L 68129701.00 53405511.00 A 161201.22 161201.22 0 0 1 68290909.00 53244303.00 L 68527129.00 53244303.00 A 161201.22 161201.22 0 0 1 68688337.00 53405511.00 L 68688337.00 54350393.00 A 161201.22 161201.22 0 0 1 68527129.00 54511601.00  zM 69527129.00 54511601.00 L 69290909.00 54511601.00 A 161201.22 161201.22 0 0 1 69129701.00 54350393.00 L 69129701.00 53405511.00 A 161201.22 161201.22 0 0 1 69290909.00 53244303.00 L 69527129.00 53244303.00 A 161201.22 161201.22 0 0 1 69688337.00 53405511.00 L 69688337.00 54350393.00 A 161201.22 161201.22 0 0 1 69527129.00 54511601.00  zM 70118113.68 56722423.80 m -437460.20 0 a 437460.20 437460.20 0 1 1 874920.41 0a 437460.20 437460.20 0 1 1 -874920.41 0M 50866143.71 69596444.13 m -437452.87 0 a 437452.87 437452.87 0 1 1 874905.73 0a 437452.87 437452.87 0 1 1 -874905.73 0M 50866143.71 71368098.13 m -437452.87 0 a 437452.87 437452.87 0 1 1 874905.73 0a 437452.87 437452.87 0 1 1 -874905.73 0M 53425199.68 69596436.80 m -437460.20 0 a 437460.20 437460.20 0 1 1 874920.41 0a 437460.20 437460.20 0 1 1 -874920.41 0M 50334645.28 73503942.39 m -1029202.61 0 a 1029202.61 1029202.61 0 1 1 2058405.22 0a 1029202.61 1029202.61 0 1 1 -2058405.22 0M 53425199.68 71368090.80 m -437460.20 0 a 437460.20 437460.20 0 1 1 874920.41 0a 437460.20 437460.20 0 1 1 -874920.41 0M 70118113.68 58828722.80 m -437460.20 0 a 437460.20 437460.20 0 1 1 874920.41 0a 437460.20 437460.20 0 1 1 -874920.41 0M 59822237.62 69242114.02 m -633575.98 0 a 633575.98 633575.98 0 1 1 1267151.97 0a 633575.98 633575.98 0 1 1 -1267151.97 0M 56227956.58 73640123.72 m -673195.28 0 a 673195.28 673195.28 0 1 1 1346390.57 0a 673195.28 673195.28 0 1 1 -1346390.57 0M 68130826.00 69872639.00 L 67500274.00 69872639.00 L 67184999.00 69557363.00 L 67184999.00 68926813.00 L 67500274.00 68611537.00 L 68130826.00 68611537.00 L 68446101.00 68926813.00 L 68446101.00 69557363.00 L 68130826.00 69872639.00  zM 71527129.00 52330501.00 L 71290909.00 52330501.00 A 161201.22 161201.22 0 0 1 71129701.00 52169293.00 L 71129701.00 51224411.00 A 161201.22 161201.22 0 0 1 71290909.00 51063203.00 L 71527129.00 51063203.00 A 161201.22 161201.22 0 0 1 71688337.00 51224411.00 L 71688337.00 52169293.00 A 161201.22 161201.22 0 0 1 71527129.00 52330501.00  zM 72527129.00 52330501.00 L 72290909.00 52330501.00 A 161201.22 161201.22 0 0 1 72129701.00 52169293.00 L 72129701.00 51224411.00 A 161201.22 161201.22 0 0 1 72290909.00 51063203.00 L 72527129.00 51063203.00 A 161201.22 161201.22 0 0 1 72688337.00 51224411.00 L 72688337.00 52169293.00 A 161201.22 161201.22 0 0 1 72527129.00 52330501.00  zM 70527129.00 54511601.00 L 70290909.00 54511601.00 A 161201.22 161201.22 0 0 1 70129701.00 54350393.00 L 70129701.00 53405511.00 A 161201.22 161201.22 0 0 1 70290909.00 53244303.00 L 70527129.00 53244303.00 A 161201.22 161201.22 0 0 1 70688337.00 53405511.00 L 70688337.00 54350393.00 A 161201.22 161201.22 0 0 1 70527129.00 54511601.00  zM 71527129.00 54511601.00 L 71290909.00 54511601.00 A 161201.22 161201.22 0 0 1 71129701.00 54350393.00 L 71129701.00 53405511.00 A 161201.22 161201.22 0 0 1 71290909.00 53244303.00 L 71527129.00 53244303.00 A 161201.22 161201.22 0 0 1 71688337.00 53405511.00 L 71688337.00 54350393.00 A 161201.22 161201.22 0 0 1 71527129.00 54511601.00  zM 72527129.00 54511601.00 L 72290909.00 54511601.00 A 161201.22 161201.22 0 0 1 72129701.00 54350393.00 L 72129701.00 53405511.00 A 161201.22 161201.22 0 0 1 72290909.00 53244303.00 L 72527129.00 53244303.00 A 161201.22 161201.22 0 0 1 72688337.00 53405511.00 L 72688337.00 54350393.00 A 161201.22 161201.22 0 0 1 72527129.00 54511601.00  zM 73527129.00 52330501.00 L 73290909.00 52330501.00 A 161201.22 161201.22 0 0 1 73129701.00 52169293.00 L 73129701.00 51224411.00 A 161201.22 161201.22 0 0 1 73290909.00 51063203.00 L 73527129.00 51063203.00 A 161201.22 161201.22 0 0 1 73688337.00 51224411.00 L 73688337.00 52169293.00 A 161201.22 161201.22 0 0 1 73527129.00 52330501.00  zM 74527129.00 52330501.00 L 74290909.00 52330501.00 A 161201.22 161201.22 0 0 1 74129701.00 52169293.00 L 74129701.00 51224411.00 A 161201.22 161201.22 0 0 1 74290909.00 51063203.00 L 74527129.00 51063203.00 A 161201.22 161201.22 0 0 1 74688337.00 51224411.00 L 74688337.00 52169293.00 A 161201.22 161201.22 0 0 1 74527129.00 52330501.00  zM 74527129.00 54511601.00 L 74290909.00 54511601.00 A 161201.22 161201.22 0 0 1 74129701.00 54350393.00 L 74129701.00 53405511.00 A 161201.22 161201.22 0 0 1 74290909.00 53244303.00 L 74527129.00 53244303.00 A 161201.22 161201.22 0 0 1 74688337.00 53405511.00 L 74688337.00 54350393.00 A 161201.22 161201.22 0 0 1 74527129.00 54511601.00  zM 73527129.00 54511601.00 L 73290909.00 54511601.00 A 161201.22 161201.22 0 0 1 73129701.00 54350393.00 L 73129701.00 53405511.00 A 161201.22 161201.22 0 0 1 73290909.00 53244303.00 L 73527129.00 53244303.00 A 161201.22 161201.22 0 0 1 73688337.00 53405511.00 L 73688337.00 54350393.00 A 161201.22 161201.22 0 0 1 73527129.00 54511601.00  zM 75527129.00 54511601.00 L 75290909.00 54511601.00 A 161201.22 161201.22 0 0 1 75129701.00 54350393.00 L 75129701.00 53405511.00 A 161201.22 161201.22 0 0 1 75290909.00 53244303.00 L 75527129.00 53244303.00 A 161201.22 161201.22 0 0 1 75688337.00 53405511.00 L 75688337.00 54350393.00 A 161201.22 161201.22 0 0 1 75527129.00 54511601.00  zM 75527129.00 52330501.00 L 75290909.00 52330501.00 A 161201.22 161201.22 0 0 1 75129701.00 52169293.00 L 75129701.00 51224411.00 A 161201.22 161201.22 0 0 1 75290909.00 51063203.00 L 75527129.00 51063203.00 A 161201.22 161201.22 0 0 1 75688337.00 51224411.00 L 75688337.00 52169293.00 A 161201.22 161201.22 0 0 1 75527129.00 52330501.00  zM 76527129.00 52330501.00 L 76290909.00 52330501.00 A 161201.22 161201.22 0 0 1 76129701.00 52169293.00 L 76129701.00 51224411.00 A 161201.22 161201.22 0 0 1 76290909.00 51063203.00 L 76527129.00 51063203.00 A 161201.22 161201.22 0 0 1 76688337.00 51224411.00 L 76688337.00 52169293.00 A 161201.22 161201.22 0 0 1 76527129.00 52330501.00  zM 76527129.00 54511601.00 L 76290909.00 54511601.00 A 161201.22 161201.22 0 0 1 76129701.00 54350393.00 L 76129701.00 53405511.00 A 161201.22 161201.22 0 0 1 76290909.00 53244303.00 L 76527129.00 53244303.00 A 161201.22 161201.22 0 0 1 76688337.00 53405511.00 L 76688337.00 54350393.00 A 161201.22 161201.22 0 0 1 76527129.00 54511601.00  zM 79209657.00 55049213.00 L 79209657.00 54557087.00 A 161201.22 161201.22 0 0 1 79532073.00 54557087.00 L 79532073.00 55049213.00 A 161201.22 161201.22 0 0 1 79209657.00 55049213.00  zM 79709657.00 55049213.00 L 79709657.00 54557087.00 A 161201.22 161201.22 0 1 1 80032073.00 54557087.00 L 80032073.00 55049213.00 A 161201.22 161201.22 0 0 1 79709657.00 55049213.00  zM 80209657.00 55049213.00 L 80209657.00 54557087.00 A 161201.22 161201.22 0 0 1 80532073.00 54557087.00 L 80532073.00 55049213.00 A 161201.22 161201.22 0 0 1 80209657.00 55049213.00  zM 80709657.00 55049213.00 L 80709657.00 54557087.00 A 161201.22 161201.22 0 0 1 81032073.00 54557087.00 L 81032073.00 55049213.00 A 161201.22 161201.22 0 0 1 80709657.00 55049213.00  zM 79209657.00 57332678.00 L 79209657.00 56840552.00 A 161201.22 161201.22 0 0 1 79532073.00 56840552.00 L 79532073.00 57332678.00 A 161201.22 161201.22 0 0 1 79209657.00 57332678.00  zM 79709657.00 57332678.00 L 79709657.00 56840552.00 A 161201.22 161201.22 0 0 1 80032073.00 56840552.00 L 80032073.00 57332678.00 A 161201.22 161201.22 0 1 1 79709657.00 57332678.00  zM 80209657.00 57332678.00 L 80209657.00 56840552.00 A 161201.22 161201.22 0 0 1 80532073.00 56840552.00 L 80532073.00 57332678.00 A 161201.22 161201.22 0 0 1 80209657.00 57332678.00  zM 80709657.00 57332678.00 L 80709657.00 56840552.00 A 161201.22 161201.22 0 0 1 81032073.00 56840552.00 L 81032073.00 57332678.00 A 161201.22 161201.22 0 0 1 80709657.00 57332678.00  zM 81209657.00 57332678.00 L 81209657.00 56840552.00 A 161201.22 161201.22 0 0 1 81532073.00 56840552.00 L 81532073.00 57332678.00 A 161201.22 161201.22 0 1 1 81209657.00 57332678.00  zM 73977009.00 59252598.00 L 72263151.00 59252598.00 L 72263151.00 58227716.00 L 73977009.00 58227716.00 L 73977009.00 59252598.00  zM 72343151.00 67480944.00 L 71771025.00 67480944.00 L 71771025.00 59605669.00 L 72343151.00 59605669.00 L 72343151.00 67480944.00  zM 80836613.00 68090547.00 L 79655511.00 68090547.00 L 79655511.00 59035429.00 L 80836613.00 59035429.00 L 80836613.00 68090547.00  zM 73977009.00 68858897.00 L 72263151.00 68858897.00 L 72263151.00 67834015.00 L 73977009.00 67834015.00 L 73977009.00 68858897.00  zM 75266377.00 71211260.00 L 74792677.00 71211260.00 L 74792677.00 70186378.00 L 75266377.00 70186378.00 L 75266377.00 71211260.00  zM 73455353.00 71211260.00 L 72981653.00 71211260.00 L 72981653.00 70186378.00 L 73455353.00 70186378.00 L 73455353.00 71211260.00  zM 74360865.00 71211260.00 L 73887165.00 71211260.00 L 73887165.00 70186378.00 L 74360865.00 70186378.00 L 74360865.00 71211260.00  zM 71947801.00 72264398.00 L 70922919.00 72264398.00 L 70922919.00 71633218.00 L 71947801.00 71633218.00 L 71947801.00 72264398.00  zM 71947801.00 73642351.00 L 70922919.00 73642351.00 L 70922919.00 73011171.00 L 71947801.00 73011171.00 L 71947801.00 73642351.00  zM 75935668.00 73809685.00 L 72312362.00 73809685.00 L 72312362.00 72154883.00 L 75935668.00 72154883.00 L 75935668.00 73809685.00  zM 77205354.00 72264408.00 L 76180472.00 72264408.00 L 76180472.00 71633228.00 L 77205354.00 71633228.00 L 77205354.00 72264408.00  zM 77205354.00 73642361.00 L 76180472.00 73642361.00 L 76180472.00 73011181.00 L 77205354.00 73011181.00 L 77205354.00 73642361.00  zM 78140393.00 72874637.00 L 77568267.00 72874637.00 L 77568267.00 72400937.00 L 78140393.00 72400937.00 L 78140393.00 72874637.00  zM 78140393.00 73662039.00 L 77568267.00 73662039.00 L 77568267.00 73188339.00 L 78140393.00 73188339.00 L 78140393.00 73662039.00  zM 79085275.00 72874634.00 L 78513149.00 72874634.00 L 78513149.00 72400934.00 L 79085275.00 72400934.00 L 79085275.00 72874634.00  zM 79085275.00 73662036.00 L 78513149.00 73662036.00 L 78513149.00 73188336.00 L 79085275.00 73188336.00 L 79085275.00 73662036.00  zM 81209657.00 55049213.00 L 81209657.00 54557087.00 A 161201.22 161201.22 0 1 1 81532073.00 54557087.00 L 81532073.00 55049213.00 A 161201.22 161201.22 0 0 1 81209657.00 55049213.00  zM 82209657.00 55049213.00 L 82209657.00 54557087.00 A 161201.22 161201.22 0 0 1 82532073.00 54557087.00 L 82532073.00 55049213.00 A 161201.22 161201.22 0 0 1 82209657.00 55049213.00  zM 82709657.00 55049213.00 L 82709657.00 54557087.00 A 161201.22 161201.22 0 1 1 83032073.00 54557087.00 L 83032073.00 55049213.00 A 161201.22 161201.22 0 1 1 82709657.00 55049213.00  zM 81709657.00 55049213.00 L 81709657.00 54557087.00 A 161201.22 161201.22 0 0 1 82032073.00 54557087.00 L 82032073.00 55049213.00 A 161201.22 161201.22 0 0 1 81709657.00 55049213.00  zM 82209657.00 57332678.00 L 82209657.00 56840552.00 A 161201.22 161201.22 0 0 1 82532073.00 56840552.00 L 82532073.00 57332678.00 A 161201.22 161201.22 0 0 1 82209657.00 57332678.00  zM 82709657.00 57332678.00 L 82709657.00 56840552.00 A 161201.22 161201.22 0 1 1 83032073.00 56840552.00 L 83032073.00 57332678.00 A 161201.22 161201.22 0 1 1 82709657.00 57332678.00  zM 89498031.01 55240152.89 m -377882.11 0 a 377882.11 377882.11 0 1 1 755764.21 0a 377882.11 377882.11 0 1 1 -755764.21 0M 89498031.01 56240152.89 m -377882.11 0 a 377882.11 377882.11 0 1 1 755764.21 0a 377882.11 377882.11 0 1 1 -755764.21 0M 90046854.58 53790123.72 m -673195.28 0 a 673195.28 673195.28 0 1 1 1346390.57 0a 673195.28 673195.28 0 1 1 -1346390.57 0M 90498031.01 56240152.89 m -377882.11 0 a 377882.11 377882.11 0 1 1 755764.21 0a 377882.11 377882.11 0 1 1 -755764.21 0M 81709657.00 57332678.00 L 81709657.00 56840552.00 A 161201.22 161201.22 0 0 1 82032073.00 56840552.00 L 82032073.00 57332678.00 A 161201.22 161201.22 0 0 1 81709657.00 57332678.00  zM 89498031.01 61240152.89 m -377882.11 0 a 377882.11 377882.11 0 1 1 755764.21 0a 377882.11 377882.11 0 1 1 -755764.21 0M 89498031.01 62240152.89 m -377882.11 0 a 377882.11 377882.11 0 1 1 755764.21 0a 377882.11 377882.11 0 1 1 -755764.21 0M 89498031.01 57240152.89 m -377882.11 0 a 377882.11 377882.11 0 1 1 755764.21 0a 377882.11 377882.11 0 1 1 -755764.21 0M 89498031.01 60240152.89 m -377882.11 0 a 377882.11 377882.11 0 1 1 755764.21 0a 377882.11 377882.11 0 1 1 -755764.21 0M 89498031.01 58240152.89 m -377882.11 0 a 377882.11 377882.11 0 1 1 755764.21 0a 377882.11 377882.11 0 1 1 -755764.21 0M 89498031.01 59240152.89 m -377882.11 0 a 377882.11 377882.11 0 1 1 755764.21 0a 377882.11 377882.11 0 1 1 -755764.21 0M 90498031.01 60240152.89 m -377882.11 0 a 377882.11 377882.11 0 1 1 755764.21 0a 377882.11 377882.11 0 1 1 -755764.21 0M 89557085.00 63558470.00 L 89438975.00 63558470.00 A 318311.35 318311.35 0 1 1 89438975.00 62921844.00 L 89557085.00 62921844.00 A 318311.35 318311.35 0 0 1 89557085.00 63558470.00  zM 89557085.00 64558470.00 L 89438975.00 64558470.00 A 318311.35 318311.35 0 1 1 89438975.00 63921844.00 L 89557085.00 63921844.00 A 318311.35 318311.35 0 0 1 89557085.00 64558470.00  zM 90498031.01 55240152.89 m -377882.11 0 a 377882.11 377882.11 0 1 1 755764.21 0a 377882.11 377882.11 0 1 1 -755764.21 0M 90498031.01 57240152.89 m -377882.11 0 a 377882.11 377882.11 0 1 1 755764.21 0a 377882.11 377882.11 0 1 1 -755764.21 0M 90498031.01 58240152.89 m -377882.11 0 a 377882.11 377882.11 0 1 1 755764.21 0a 377882.11 377882.11 0 1 1 -755764.21 0M 103217578.28 50443304.39 m -1029202.61 0 a 1029202.61 1029202.61 0 1 1 2058405.22 0a 1029202.61 1029202.61 0 1 1 -2058405.22 0M 97704127.58 58159825.77 m -2997390.23 0 a 2997390.23 2997390.23 0 1 1 5994780.47 0a 2997390.23 2997390.23 0 1 1 -5994780.47 0M 90498031.01 59240152.89 m -377882.11 0 a 377882.11 377882.11 0 1 1 755764.21 0a 377882.11 377882.11 0 1 1 -755764.21 0M 90498031.01 61240152.89 m -377882.11 0 a 377882.11 377882.11 0 1 1 755764.21 0a 377882.11 377882.11 0 1 1 -755764.21 0M 90498031.01 62240152.89 m -377882.11 0 a 377882.11 377882.11 0 1 1 755764.21 0a 377882.11 377882.11 0 1 1 -755764.21 0M 90557085.00 63558470.00 L 90438975.00 63558470.00 A 318311.35 318311.35 0 1 1 90438975.00 62921844.00 L 90557085.00 62921844.00 A 318311.35 318311.35 0 1 1 90557085.00 63558470.00  zM 90557085.00 64558470.00 L 90438975.00 64558470.00 A 318311.35 318311.35 0 1 1 90438975.00 63921844.00 L 90557085.00 63921844.00 A 318311.35 318311.35 0 1 1 90557085.00 64558470.00  zM 96071496.00 65433701.00 L 95204094.00 65433701.00 L 95204094.00 64566299.00 L 96071496.00 64566299.00 L 96071496.00 65433701.00  zM 96637797.71 64999990.13 m -437452.87 0 a 437452.87 437452.87 0 1 1 874905.73 0a 437452.87 437452.87 0 1 1 -874905.73 0M 97637797.71 64999990.13 m -437452.87 0 a 437452.87 437452.87 0 1 1 874905.73 0a 437452.87 437452.87 0 1 1 -874905.73 0M 98637797.71 64999990.13 m -437452.87 0 a 437452.87 437452.87 0 1 1 874905.73 0a 437452.87 437452.87 0 1 1 -874905.73 0M 99637797.71 64999990.13 m -437452.87 0 a 437452.87 437452.87 0 1 1 874905.73 0a 437452.87 437452.87 0 1 1 -874905.73 0M 101102992.00 65423853.00 L 100530866.00 65423853.00 L 100530866.00 64950153.00 L 101102992.00 64950153.00 L 101102992.00 65423853.00  zM 101956010.00 65423853.00 L 101383884.00 65423853.00 L 101383884.00 64950153.00 L 101956010.00 64950153.00 L 101956010.00 65423853.00  zM 102809028.00 65423853.00 L 102236902.00 65423853.00 L 102236902.00 64950153.00 L 102809028.00 64950153.00 L 102809028.00 65423853.00  zM 103662046.00 65423853.00 L 103089920.00 65423853.00 L 103089920.00 64950153.00 L 103662046.00 64950153.00 L 103662046.00 65423853.00  zM 89537400.00 65578325.00 L 89458660.00 65578325.00 A 338174.95 338174.95 0 0 1 89458660.00 64901989.00 L 89537400.00 64901989.00 A 338174.95 338174.95 0 0 1 89537400.00 65578325.00  zM 89557085.00 66558470.00 L 89438975.00 66558470.00 A 318311.35 318311.35 0 0 1 89438975.00 65921844.00 L 89557085.00 65921844.00 A 318311.35 318311.35 0 0 1 89557085.00 66558470.00  zM 90537400.00 65578325.00 L 90458660.00 65578325.00 A 338174.95 338174.95 0 0 1 90458660.00 64901989.00 L 90537400.00 64901989.00 A 338174.95 338174.95 0 0 1 90537400.00 65578325.00  zM 89557085.00 67558470.00 L 89438975.00 67558470.00 A 318311.35 318311.35 0 0 1 89438975.00 66921844.00 L 89557085.00 66921844.00 A 318311.35 318311.35 0 0 1 89557085.00 67558470.00  zM 90557085.00 66558470.00 L 90438975.00 66558470.00 A 318311.35 318311.35 0 0 1 90438975.00 65921844.00 L 90557085.00 65921844.00 A 318311.35 318311.35 0 0 1 90557085.00 66558470.00  zM 89498031.01 68240152.89 m -377882.11 0 a 377882.11 377882.11 0 1 1 755764.21 0a 377882.11 377882.11 0 1 1 -755764.21 0M 90498031.01 68240152.89 m -377882.11 0 a 377882.11 377882.11 0 1 1 755764.21 0a 377882.11 377882.11 0 1 1 -755764.21 0M 90557085.00 67558470.00 L 90438975.00 67558470.00 A 318311.35 318311.35 0 0 1 90438975.00 66921844.00 L 90557085.00 66921844.00 A 318311.35 318311.35 0 0 1 90557085.00 67558470.00  zM 89557085.00 69558470.00 L 89438975.00 69558470.00 A 318311.35 318311.35 0 1 1 89438975.00 68921844.00 L 89557085.00 68921844.00 A 318311.35 318311.35 0 0 1 89557085.00 69558470.00  zM 90498031.01 69240152.89 m -377882.11 0 a 377882.11 377882.11 0 1 1 755764.21 0a 377882.11 377882.11 0 1 1 -755764.21 0M 89557085.00 70558470.00 L 89438975.00 70558470.00 A 318311.35 318311.35 0 0 1 89438975.00 69921844.00 L 89557085.00 69921844.00 A 318311.35 318311.35 0 0 1 89557085.00 70558470.00  zM 89498031.01 71240152.89 m -377882.11 0 a 377882.11 377882.11 0 1 1 755764.21 0a 377882.11 377882.11 0 1 1 -755764.21 0M 90557085.00 70558470.00 L 90438975.00 70558470.00 A 318311.35 318311.35 0 0 1 90438975.00 69921844.00 L 90557085.00 69921844.00 A 318311.35 318311.35 0 0 1 90557085.00 70558470.00  zM 90557085.00 71558470.00 L 90438975.00 71558470.00 A 318311.35 318311.35 0 1 1 90438975.00 70921844.00 L 90557085.00 70921844.00 A 318311.35 318311.35 0 1 1 90557085.00 71558470.00  zM 90498031.01 72240152.89 m -377882.11 0 a 377882.11 377882.11 0 1 1 755764.21 0a 377882.11 377882.11 0 1 1 -755764.21 0M 89872675.00 72614802.00 L 89123385.00 72614802.00 L 89123385.00 71865512.00 L 89872675.00 71865512.00 L 89872675.00 72614802.00  zM 90046854.58 73640123.72 m -673195.28 0 a 673195.28 673195.28 0 1 1 1346390.57 0a 673195.28 673195.28 0 1 1 -1346390.57 0M 92825433.00 73120716.00 L 92253307.00 73120716.00 L 92253307.00 72647016.00 L 92825433.00 72647016.00 L 92825433.00 73120716.00  zM 92825433.00 73908118.00 L 92253307.00 73908118.00 L 92253307.00 73434418.00 L 92825433.00 73434418.00 L 92825433.00 73908118.00  zM 94606511.00 68651892.00 L 94173439.00 68651892.00 A 221427.33 221427.33 0 0 1 93952019.00 68430472.00 L 93952019.00 68076142.00 A 221427.33 221427.33 0 0 1 94173439.00 67854722.00 L 94606511.00 67854722.00 A 221427.33 221427.33 0 0 1 94827931.00 68076142.00 L 94827931.00 68430472.00 A 221427.33 221427.33 0 0 1 94606511.00 68651892.00  zM 94606511.00 69636144.00 L 94173439.00 69636144.00 A 221427.33 221427.33 0 0 1 93952019.00 69414724.00 L 93952019.00 69060394.00 A 221427.33 221427.33 0 0 1 94173439.00 68838974.00 L 94606511.00 68838974.00 A 221427.33 221427.33 0 0 1 94827931.00 69060394.00 L 94827931.00 69414724.00 A 221427.33 221427.33 0 0 1 94606511.00 69636144.00  zM 97706906.67 69237545.02 m -2012828.98 0 a 2012828.98 2012828.98 0 1 1 4025657.96 0a 2012828.98 2012828.98 0 1 1 -4025657.96 0M 94606511.00 70620396.00 L 94173439.00 70620396.00 A 221427.33 221427.33 0 0 1 93952019.00 70398976.00 L 93952019.00 70044646.00 A 221427.33 221427.33 0 0 1 94173439.00 69823226.00 L 94606511.00 69823226.00 A 221427.33 221427.33 0 0 1 94827931.00 70044646.00 L 94827931.00 70398976.00 A 221427.33 221427.33 0 0 1 94606511.00 70620396.00  zM 95561653.00 73120713.00 L 94989527.00 73120713.00 L 94989527.00 72647013.00 L 95561653.00 72647013.00 L 95561653.00 73120713.00  zM 93721102.00 73120719.00 L 93148976.00 73120719.00 L 93148976.00 72647019.00 L 93721102.00 72647019.00 L 93721102.00 73120719.00  zM 93721102.00 73908121.00 L 93148976.00 73908121.00 L 93148976.00 73434421.00 L 93721102.00 73434421.00 L 93721102.00 73908121.00  zM 94675826.00 73908123.00 L 94103700.00 73908123.00 L 94103700.00 73434423.00 L 94675826.00 73434423.00 L 94675826.00 73908123.00  zM 94675826.00 73120721.00 L 94103700.00 73120721.00 L 94103700.00 72647021.00 L 94675826.00 72647021.00 L 94675826.00 73120721.00  zM 95561653.00 73908115.00 L 94989527.00 73908115.00 L 94989527.00 73434415.00 L 95561653.00 73434415.00 L 95561653.00 73908115.00  zM 101102992.00 66211255.00 L 100530866.00 66211255.00 L 100530866.00 65737555.00 L 101102992.00 65737555.00 L 101102992.00 66211255.00  zM 101956010.00 66211255.00 L 101383884.00 66211255.00 L 101383884.00 65737555.00 L 101956010.00 65737555.00 L 101956010.00 66211255.00  zM 102809028.00 66211255.00 L 102236902.00 66211255.00 L 102236902.00 65737555.00 L 102809028.00 65737555.00 L 102809028.00 66211255.00  zM 103662046.00 66211255.00 L 103089920.00 66211255.00 L 103089920.00 65737555.00 L 103662046.00 65737555.00 L 103662046.00 66211255.00  zM 102809028.00 67727007.00 L 102236902.00 67727007.00 L 102236902.00 67253307.00 L 102809028.00 67253307.00 L 102809028.00 67727007.00  zM 101102568.00 68651892.00 L 100669496.00 68651892.00 A 221427.33 221427.33 0 0 1 100448076.00 68430472.00 L 100448076.00 68076142.00 A 221427.33 221427.33 0 0 1 100669496.00 67854722.00 L 101102568.00 67854722.00 A 221427.33 221427.33 0 0 1 101323988.00 68076142.00 L 101323988.00 68430472.00 A 221427.33 221427.33 0 0 1 101102568.00 68651892.00  zM 102809028.00 68514409.00 L 102236902.00 68514409.00 L 102236902.00 68040709.00 L 102809028.00 68040709.00 L 102809028.00 68514409.00  zM 101102568.00 70620395.00 L 100669496.00 70620395.00 A 221427.33 221427.33 0 0 1 100448076.00 70398975.00 L 100448076.00 70044645.00 A 221427.33 221427.33 0 0 1 100669496.00 69823225.00 L 101102568.00 69823225.00 A 221427.33 221427.33 0 0 1 101323988.00 70044645.00 L 101323988.00 70398975.00 A 221427.33 221427.33 0 0 1 101102568.00 70620395.00  zM 103217578.28 73503942.39 m -1029202.61 0 a 1029202.61 1029202.61 0 1 1 2058405.22 0a 1029202.61 1029202.61 0 1 1 -2058405.22 0"/>
</g>
</svg>
