M48
METRIC,LZ,000.000
;FILE_FORMAT=3:3
;TYPE=PLATED
;Layer: Drill PTH
;EasyEDA v6.4.17, 2021-03-24T19:41:23+03:00
;2c49bd5f4e4e4d2885fbfcddc53ef99b,9cdda048f1864c1181896bc4b360679f,10
;Gerber Generator version 0.2
;Holesize 1 = 3.101 mm
T01C3.101
;Holesize 2 = 6.101 mm
T02C6.101
;Holesize 3 = 8.000 mm
T03C8.000
;Holesize 4 = 9.000 mm
T04C9.000
;Holesize 5 = 10.000 mm
T05C10.000
%
G05
G90
T01
X056120Y123792
X056120Y054792
X237119Y054792
X237119Y123792
X056120Y123792
X056120Y054792
X237119Y123792
X237119Y054792
T02
X061620Y077862
X073620Y077862
X085620Y077862
X061722Y065024
X073660Y065024
X085598Y065024
X097619Y064863
X109620Y058862
X132620Y058862
X144272Y058928
X155620Y058862
X167120Y058862
X178620Y058862
X190246Y058928
X201620Y058862
X213120Y058862
X228120Y121362
X216662Y121412
X205120Y121362
X224620Y058862
X121120Y058862
X065120Y121362
X097630Y077860
X073620Y077862
X061620Y077862
X061722Y065024
X073660Y065024
X085598Y065024
X097619Y064863
X109620Y058862
X121120Y058862
X132620Y058862
X155620Y058862
X144272Y058928
X167120Y058862
X178620Y058862
X190246Y058928
X201620Y058862
X213120Y058862
X224620Y058862
X205120Y121362
X216662Y121412
X228120Y121362
X065120Y121362
X085620Y077862
T03
X093558Y098200
X093558Y098200
T04
X062992Y097790
X078232Y097790
X078232Y097790
X062992Y097790
T05
X217424Y089408
X217424Y089408
M30
