G04 Layer: BottomLayer*
G04 EasyEDA v6.4.17, 2021-03-24T19:41:23+03:00*
G04 2c49bd5f4e4e4d2885fbfcddc53ef99b,9cdda048f1864c1181896bc4b360679f,10*
G04 Gerber Generator version 0.2*
G04 Scale: 100 percent, Rotated: No, Reflected: No *
G04 Dimensions in millimeters *
G04 leading zeros omitted , absolute positions ,4 integer and 5 decimal *
%FSLAX45Y45*%
%MOMM*%

%ADD13C,6.1000*%
%ADD14C,3.1000*%
%ADD15C,10.0000*%
%ADD16C,8.0000*%
%ADD17C,9.0000*%
%ADD18C,5.0000*%
%ADD19C,2.5000*%
%ADD20C,8.5000*%
%ADD21C,7.5000*%
%ADD22C,9.5000*%

%LPD*%
G36*
X5370677Y4923637D02*
G01*
X5362143Y4924247D01*
X5356402Y4925669D01*
X5351018Y4928108D01*
X5346090Y4931410D01*
X5341772Y4935474D01*
X5338267Y4940249D01*
X5335625Y4945583D01*
X5333898Y4951222D01*
X5333187Y4957013D01*
X5333288Y4966004D01*
X5332628Y4971186D01*
X5333644Y13157707D01*
X5334457Y13163804D01*
X5335066Y13172135D01*
X5336489Y13177875D01*
X5338927Y13183311D01*
X5342229Y13188238D01*
X5346344Y13192506D01*
X5351068Y13196062D01*
X5356402Y13198703D01*
X5362041Y13200430D01*
X5367934Y13201142D01*
X5375960Y13200938D01*
X24244808Y13201192D01*
X24253342Y13200583D01*
X24259082Y13199160D01*
X24264518Y13196722D01*
X24269446Y13193420D01*
X24273713Y13189305D01*
X24277269Y13184581D01*
X24279910Y13179247D01*
X24281638Y13173608D01*
X24282349Y13167766D01*
X24282450Y4961432D01*
X24281790Y4952644D01*
X24280266Y4946700D01*
X24277878Y4941316D01*
X24274576Y4936388D01*
X24270462Y4932070D01*
X24265686Y4928565D01*
X24260403Y4925923D01*
X24254714Y4924196D01*
X24250294Y4923637D01*
G37*

%LPC*%
G36*
X9519818Y6617614D02*
G01*
X9630562Y6617614D01*
X9630562Y6728358D01*
X9624060Y6725005D01*
X9604603Y6712610D01*
X9586214Y6698640D01*
X9569043Y6683197D01*
X9553244Y6666382D01*
X9538919Y6648297D01*
X9526117Y6629044D01*
G37*
G36*
X5680811Y5345430D02*
G01*
X5692089Y5351678D01*
X5705856Y5361432D01*
X5718454Y5372709D01*
X5729732Y5385308D01*
X5739485Y5399074D01*
X5745734Y5410352D01*
X5680811Y5410352D01*
G37*
G36*
X23643082Y5345430D02*
G01*
X23643082Y5410352D01*
X23578159Y5410352D01*
X23584408Y5399074D01*
X23594161Y5385308D01*
X23605439Y5372709D01*
X23618037Y5361432D01*
X23631804Y5351678D01*
G37*
G36*
X23780800Y5345430D02*
G01*
X23792078Y5351678D01*
X23805845Y5361432D01*
X23818443Y5372709D01*
X23829721Y5385308D01*
X23839474Y5399074D01*
X23845723Y5410352D01*
X23780800Y5410352D01*
G37*
G36*
X5680811Y5548071D02*
G01*
X5745734Y5548071D01*
X5739485Y5559348D01*
X5729732Y5573115D01*
X5718454Y5585714D01*
X5705856Y5596991D01*
X5692089Y5606745D01*
X5680811Y5612993D01*
G37*
G36*
X5478170Y5548071D02*
G01*
X5543092Y5548071D01*
X5543092Y5612993D01*
X5531815Y5606745D01*
X5518048Y5596991D01*
X5505450Y5585714D01*
X5494172Y5573115D01*
X5484418Y5559348D01*
G37*
G36*
X23780800Y5548071D02*
G01*
X23845723Y5548071D01*
X23839474Y5559348D01*
X23829721Y5573115D01*
X23818443Y5585714D01*
X23805845Y5596991D01*
X23792078Y5606745D01*
X23780800Y5612993D01*
G37*
G36*
X23578159Y5548071D02*
G01*
X23643082Y5548071D01*
X23643082Y5612993D01*
X23631804Y5606745D01*
X23618037Y5596991D01*
X23605439Y5585714D01*
X23594161Y5573115D01*
X23584408Y5559348D01*
G37*
G36*
X21443340Y5644032D02*
G01*
X21459647Y5653481D01*
X21478646Y5666638D01*
X21496426Y5681370D01*
X21512885Y5697524D01*
X21527973Y5715000D01*
X21541536Y5733694D01*
X21553525Y5753404D01*
X21554236Y5754878D01*
X21443340Y5754878D01*
G37*
G36*
X13393318Y5644032D02*
G01*
X13409676Y5653481D01*
X13428624Y5666638D01*
X13446404Y5681370D01*
X13462914Y5697524D01*
X13478001Y5715000D01*
X13491565Y5733694D01*
X13504265Y5754878D01*
X13393318Y5754878D01*
G37*
G36*
X20293330Y5644032D02*
G01*
X20309687Y5653481D01*
X20328636Y5666638D01*
X20346416Y5681370D01*
X20362926Y5697524D01*
X20378013Y5715000D01*
X20391577Y5733694D01*
X20404277Y5754878D01*
X20293330Y5754878D01*
G37*
G36*
X22593350Y5644032D02*
G01*
X22609657Y5653481D01*
X22628656Y5666638D01*
X22646436Y5681370D01*
X22662896Y5697524D01*
X22677983Y5715000D01*
X22691547Y5733694D01*
X22703536Y5753404D01*
X22704247Y5754878D01*
X22593350Y5754878D01*
G37*
G36*
X16843349Y5644032D02*
G01*
X16859656Y5653481D01*
X16878655Y5666638D01*
X16896435Y5681370D01*
X16912894Y5697524D01*
X16927982Y5715000D01*
X16941546Y5733694D01*
X16953534Y5753404D01*
X16954246Y5754878D01*
X16843349Y5754878D01*
G37*
G36*
X17993360Y5644032D02*
G01*
X18009666Y5653481D01*
X18028666Y5666638D01*
X18046446Y5681370D01*
X18062905Y5697524D01*
X18077992Y5715000D01*
X18091556Y5733694D01*
X18103545Y5753404D01*
X18104256Y5754878D01*
X17993360Y5754878D01*
G37*
G36*
X15693339Y5644032D02*
G01*
X15709696Y5653481D01*
X15728645Y5666638D01*
X15746425Y5681370D01*
X15762935Y5697524D01*
X15778022Y5715000D01*
X15791586Y5733694D01*
X15804286Y5754878D01*
X15693339Y5754878D01*
G37*
G36*
X12243358Y5644032D02*
G01*
X12259665Y5653481D01*
X12278664Y5666638D01*
X12296444Y5681370D01*
X12312904Y5697524D01*
X12327991Y5715000D01*
X12341555Y5733694D01*
X12353544Y5753404D01*
X12354255Y5754878D01*
X12243358Y5754878D01*
G37*
G36*
X11093348Y5644032D02*
G01*
X11109655Y5653481D01*
X11128654Y5666638D01*
X11146434Y5681370D01*
X11162893Y5697524D01*
X11177981Y5715000D01*
X11191544Y5733694D01*
X11203533Y5753404D01*
X11204244Y5754878D01*
X11093348Y5754878D01*
G37*
G36*
X11980621Y5644134D02*
G01*
X11980621Y5754878D01*
X11869928Y5754878D01*
X11876227Y5743448D01*
X11888978Y5724194D01*
X11903303Y5706110D01*
X11919153Y5689295D01*
X11936272Y5673852D01*
X11954662Y5659882D01*
X11974169Y5647486D01*
G37*
G36*
X22330613Y5644134D02*
G01*
X22330613Y5754878D01*
X22219920Y5754878D01*
X22226219Y5743448D01*
X22238970Y5724194D01*
X22253295Y5706110D01*
X22269145Y5689295D01*
X22286264Y5673852D01*
X22304654Y5659882D01*
X22324161Y5647486D01*
G37*
G36*
X16580612Y5644134D02*
G01*
X16580612Y5754878D01*
X16469918Y5754878D01*
X16476218Y5743448D01*
X16488968Y5724194D01*
X16503294Y5706110D01*
X16519144Y5689295D01*
X16536263Y5673852D01*
X16554653Y5659882D01*
X16574160Y5647486D01*
G37*
G36*
X13130631Y5644134D02*
G01*
X13130631Y5754878D01*
X13019887Y5754878D01*
X13026186Y5743448D01*
X13038988Y5724194D01*
X13053313Y5706110D01*
X13069112Y5689295D01*
X13086283Y5673852D01*
X13104672Y5659882D01*
X13124129Y5647486D01*
G37*
G36*
X21180602Y5644134D02*
G01*
X21180602Y5754878D01*
X21069909Y5754878D01*
X21076208Y5743448D01*
X21088959Y5724194D01*
X21103285Y5706110D01*
X21119134Y5689295D01*
X21136254Y5673852D01*
X21154644Y5659882D01*
X21174151Y5647486D01*
G37*
G36*
X17730622Y5644134D02*
G01*
X17730622Y5754878D01*
X17619929Y5754878D01*
X17626228Y5743448D01*
X17638979Y5724194D01*
X17653304Y5706110D01*
X17669154Y5689295D01*
X17686274Y5673852D01*
X17704663Y5659882D01*
X17724170Y5647486D01*
G37*
G36*
X15430652Y5644134D02*
G01*
X15430652Y5754878D01*
X15319908Y5754878D01*
X15326207Y5743448D01*
X15339009Y5724194D01*
X15353334Y5706110D01*
X15369133Y5689295D01*
X15386304Y5673852D01*
X15404693Y5659882D01*
X15424150Y5647486D01*
G37*
G36*
X10830610Y5644134D02*
G01*
X10830610Y5754878D01*
X10719917Y5754878D01*
X10726216Y5743448D01*
X10738967Y5724194D01*
X10753293Y5706110D01*
X10769142Y5689295D01*
X10786262Y5673852D01*
X10804652Y5659882D01*
X10824159Y5647486D01*
G37*
G36*
X20030643Y5644134D02*
G01*
X20030643Y5754878D01*
X19919899Y5754878D01*
X19926198Y5743448D01*
X19939000Y5724194D01*
X19953325Y5706110D01*
X19969124Y5689295D01*
X19986294Y5673852D01*
X20004684Y5659882D01*
X20024140Y5647486D01*
G37*
G36*
X14558568Y5650636D02*
G01*
X14574875Y5660085D01*
X14593874Y5673242D01*
X14611654Y5687974D01*
X14628113Y5704128D01*
X14643201Y5721604D01*
X14656765Y5740247D01*
X14669465Y5761431D01*
X14558568Y5761431D01*
G37*
G36*
X19155968Y5650636D02*
G01*
X19172275Y5660085D01*
X19191274Y5673242D01*
X19209054Y5687974D01*
X19225514Y5704128D01*
X19240601Y5721604D01*
X19254165Y5740247D01*
X19266865Y5761431D01*
X19155968Y5761431D01*
G37*
G36*
X18893231Y5650738D02*
G01*
X18893231Y5761431D01*
X18782538Y5761431D01*
X18788837Y5750001D01*
X18801588Y5730798D01*
X18815913Y5712663D01*
X18831763Y5695848D01*
X18848882Y5680405D01*
X18867272Y5666435D01*
X18886779Y5654090D01*
G37*
G36*
X14295831Y5650738D02*
G01*
X14295831Y5761431D01*
X14185138Y5761431D01*
X14191437Y5750001D01*
X14204188Y5730798D01*
X14218513Y5712663D01*
X14234363Y5695848D01*
X14251482Y5680405D01*
X14269872Y5666435D01*
X14289379Y5654090D01*
G37*
G36*
X13019887Y6017564D02*
G01*
X13130631Y6017564D01*
X13130631Y6128308D01*
X13124129Y6124956D01*
X13104672Y6112560D01*
X13086283Y6098590D01*
X13069112Y6083147D01*
X13053313Y6066332D01*
X13038988Y6048248D01*
X13026186Y6028994D01*
G37*
G36*
X11869928Y6017564D02*
G01*
X11980621Y6017564D01*
X11980621Y6128308D01*
X11974169Y6124956D01*
X11954662Y6112560D01*
X11936272Y6098590D01*
X11919153Y6083147D01*
X11903303Y6066332D01*
X11888978Y6048248D01*
X11876227Y6028994D01*
G37*
G36*
X10719917Y6017564D02*
G01*
X10830610Y6017564D01*
X10830610Y6128308D01*
X10824159Y6124956D01*
X10804652Y6112560D01*
X10786262Y6098590D01*
X10769142Y6083147D01*
X10753293Y6066332D01*
X10738967Y6048248D01*
X10726216Y6028994D01*
G37*
G36*
X21069909Y6017564D02*
G01*
X21180602Y6017564D01*
X21180602Y6128308D01*
X21174151Y6124956D01*
X21154644Y6112560D01*
X21136254Y6098590D01*
X21119134Y6083147D01*
X21103285Y6066332D01*
X21088959Y6048248D01*
X21076208Y6028994D01*
G37*
G36*
X15319908Y6017564D02*
G01*
X15430652Y6017564D01*
X15430652Y6128308D01*
X15424150Y6124956D01*
X15404693Y6112560D01*
X15386304Y6098590D01*
X15369133Y6083147D01*
X15353334Y6066332D01*
X15339009Y6048248D01*
X15326207Y6028994D01*
G37*
G36*
X19919899Y6017564D02*
G01*
X20030643Y6017564D01*
X20030643Y6128308D01*
X20024140Y6124956D01*
X20004684Y6112560D01*
X19986294Y6098590D01*
X19969124Y6083147D01*
X19953325Y6066332D01*
X19939000Y6048248D01*
X19926198Y6028994D01*
G37*
G36*
X17619929Y6017564D02*
G01*
X17730622Y6017564D01*
X17730622Y6128308D01*
X17724170Y6124956D01*
X17704663Y6112560D01*
X17686274Y6098590D01*
X17669154Y6083147D01*
X17653304Y6066332D01*
X17638979Y6048248D01*
X17626228Y6028994D01*
G37*
G36*
X16469918Y6017564D02*
G01*
X16580612Y6017564D01*
X16580612Y6128308D01*
X16574160Y6124956D01*
X16554653Y6112560D01*
X16536263Y6098590D01*
X16519144Y6083147D01*
X16503294Y6066332D01*
X16488968Y6048248D01*
X16476218Y6028994D01*
G37*
G36*
X22219920Y6017564D02*
G01*
X22330613Y6017564D01*
X22330613Y6128308D01*
X22324161Y6124956D01*
X22304654Y6112560D01*
X22286264Y6098590D01*
X22269145Y6083147D01*
X22253295Y6066332D01*
X22238970Y6048248D01*
X22226219Y6028994D01*
G37*
G36*
X21443340Y6017564D02*
G01*
X21554236Y6017564D01*
X21553525Y6019038D01*
X21541536Y6038748D01*
X21527973Y6057442D01*
X21512885Y6074918D01*
X21496426Y6091072D01*
X21478646Y6105804D01*
X21459647Y6118961D01*
X21443340Y6128410D01*
G37*
G36*
X17993360Y6017564D02*
G01*
X18104256Y6017564D01*
X18103545Y6019038D01*
X18091556Y6038748D01*
X18077992Y6057442D01*
X18062905Y6074918D01*
X18046446Y6091072D01*
X18028666Y6105804D01*
X18009666Y6118961D01*
X17993360Y6128410D01*
G37*
G36*
X13393318Y6017564D02*
G01*
X13504265Y6017564D01*
X13491565Y6038748D01*
X13478001Y6057442D01*
X13462914Y6074918D01*
X13446404Y6091072D01*
X13428624Y6105804D01*
X13409676Y6118961D01*
X13393318Y6128410D01*
G37*
G36*
X15693339Y6017564D02*
G01*
X15804286Y6017564D01*
X15791586Y6038748D01*
X15778022Y6057442D01*
X15762935Y6074918D01*
X15746425Y6091072D01*
X15728645Y6105804D01*
X15709696Y6118961D01*
X15693339Y6128410D01*
G37*
G36*
X22593350Y6017564D02*
G01*
X22704247Y6017564D01*
X22703536Y6019038D01*
X22691547Y6038748D01*
X22677983Y6057442D01*
X22662896Y6074918D01*
X22646436Y6091072D01*
X22628656Y6105804D01*
X22609657Y6118961D01*
X22593350Y6128410D01*
G37*
G36*
X16843349Y6017564D02*
G01*
X16954246Y6017564D01*
X16953534Y6019038D01*
X16941546Y6038748D01*
X16927982Y6057442D01*
X16912894Y6074918D01*
X16896435Y6091072D01*
X16878655Y6105804D01*
X16859656Y6118961D01*
X16843349Y6128410D01*
G37*
G36*
X20293330Y6017564D02*
G01*
X20404277Y6017564D01*
X20391577Y6038748D01*
X20378013Y6057442D01*
X20362926Y6074918D01*
X20346416Y6091072D01*
X20328636Y6105804D01*
X20309687Y6118961D01*
X20293330Y6128410D01*
G37*
G36*
X12243358Y6017564D02*
G01*
X12354255Y6017564D01*
X12353544Y6019038D01*
X12341555Y6038748D01*
X12327991Y6057442D01*
X12312904Y6074918D01*
X12296444Y6091072D01*
X12278664Y6105804D01*
X12259665Y6118961D01*
X12243358Y6128410D01*
G37*
G36*
X11093348Y6017564D02*
G01*
X11204244Y6017564D01*
X11203533Y6019038D01*
X11191544Y6038748D01*
X11177981Y6057442D01*
X11162893Y6074918D01*
X11146434Y6091072D01*
X11128654Y6105804D01*
X11109655Y6118961D01*
X11093348Y6128410D01*
G37*
G36*
X18782538Y6024168D02*
G01*
X18893231Y6024168D01*
X18893231Y6134862D01*
X18886779Y6131509D01*
X18867272Y6119164D01*
X18848882Y6105194D01*
X18831763Y6089751D01*
X18815913Y6072936D01*
X18801588Y6054801D01*
X18788837Y6035598D01*
G37*
G36*
X14185138Y6024168D02*
G01*
X14295831Y6024168D01*
X14295831Y6134862D01*
X14289379Y6131509D01*
X14269872Y6119164D01*
X14251482Y6105194D01*
X14234363Y6089751D01*
X14218513Y6072936D01*
X14204188Y6054801D01*
X14191437Y6035598D01*
G37*
G36*
X14558568Y6024168D02*
G01*
X14669465Y6024168D01*
X14656765Y6045352D01*
X14643201Y6063996D01*
X14628113Y6081471D01*
X14611654Y6097625D01*
X14593874Y6112357D01*
X14574875Y6125514D01*
X14558568Y6134963D01*
G37*
G36*
X19155968Y6024168D02*
G01*
X19266865Y6024168D01*
X19254165Y6045352D01*
X19240601Y6063996D01*
X19225514Y6081471D01*
X19209054Y6097625D01*
X19191274Y6112357D01*
X19172275Y6125514D01*
X19155968Y6134963D01*
G37*
G36*
X9893249Y6244082D02*
G01*
X9909606Y6253530D01*
X9928555Y6266688D01*
X9946335Y6281420D01*
X9962845Y6297574D01*
X9977932Y6315049D01*
X9991496Y6333744D01*
X10004196Y6354927D01*
X9893249Y6354927D01*
G37*
G36*
X9630562Y6244183D02*
G01*
X9630562Y6354927D01*
X9519818Y6354927D01*
X9526117Y6343497D01*
X9538919Y6324244D01*
X9553244Y6306159D01*
X9569043Y6289344D01*
X9586214Y6273901D01*
X9604603Y6259931D01*
X9624060Y6247536D01*
G37*
G36*
X6303568Y6260236D02*
G01*
X6319875Y6269685D01*
X6338874Y6282842D01*
X6356654Y6297574D01*
X6373114Y6313728D01*
X6388201Y6331204D01*
X6401765Y6349847D01*
X6414465Y6371031D01*
X6303568Y6371031D01*
G37*
G36*
X8691168Y6260236D02*
G01*
X8707475Y6269685D01*
X8726474Y6282842D01*
X8744254Y6297574D01*
X8760714Y6313728D01*
X8775801Y6331204D01*
X8789365Y6349847D01*
X8802065Y6371031D01*
X8691168Y6371031D01*
G37*
G36*
X7497368Y6260236D02*
G01*
X7513675Y6269685D01*
X7532674Y6282842D01*
X7550454Y6297574D01*
X7566914Y6313728D01*
X7582001Y6331204D01*
X7595565Y6349847D01*
X7608265Y6371031D01*
X7497368Y6371031D01*
G37*
G36*
X7234631Y6260287D02*
G01*
X7234631Y6371031D01*
X7123938Y6371031D01*
X7130237Y6359601D01*
X7142988Y6340398D01*
X7157313Y6322263D01*
X7173163Y6305448D01*
X7190282Y6290005D01*
X7208672Y6276035D01*
X7228179Y6263690D01*
G37*
G36*
X8428431Y6260287D02*
G01*
X8428431Y6371031D01*
X8317738Y6371031D01*
X8324037Y6359601D01*
X8336788Y6340398D01*
X8351113Y6322263D01*
X8366963Y6305448D01*
X8384082Y6290005D01*
X8402472Y6276035D01*
X8421979Y6263690D01*
G37*
G36*
X6040831Y6260338D02*
G01*
X6040831Y6371031D01*
X5930138Y6371031D01*
X5936437Y6359601D01*
X5949188Y6340398D01*
X5963513Y6322263D01*
X5979363Y6305448D01*
X5996482Y6290005D01*
X6014872Y6276035D01*
X6034379Y6263690D01*
G37*
G36*
X5543092Y5345430D02*
G01*
X5543092Y5410352D01*
X5478170Y5410352D01*
X5484418Y5399074D01*
X5494172Y5385308D01*
X5505450Y5372709D01*
X5518048Y5361432D01*
X5531815Y5351678D01*
G37*
G36*
X9893249Y6617614D02*
G01*
X10004196Y6617614D01*
X9991496Y6638798D01*
X9977932Y6657492D01*
X9962845Y6674967D01*
X9946335Y6691122D01*
X9928555Y6705853D01*
X9909606Y6719011D01*
X9893249Y6728459D01*
G37*
G36*
X7123938Y6633768D02*
G01*
X7234631Y6633768D01*
X7234631Y6744462D01*
X7228179Y6741109D01*
X7208672Y6728764D01*
X7190282Y6714794D01*
X7173163Y6699351D01*
X7157313Y6682536D01*
X7142988Y6664401D01*
X7130237Y6645198D01*
G37*
G36*
X8317738Y6633768D02*
G01*
X8428431Y6633768D01*
X8428431Y6744462D01*
X8421979Y6741109D01*
X8402472Y6728764D01*
X8384082Y6714794D01*
X8366963Y6699351D01*
X8351113Y6682536D01*
X8336788Y6664401D01*
X8324037Y6645198D01*
G37*
G36*
X5930138Y6633768D02*
G01*
X6040831Y6633768D01*
X6040831Y6744462D01*
X6034379Y6741109D01*
X6014872Y6728764D01*
X5996482Y6714794D01*
X5979363Y6699351D01*
X5963513Y6682536D01*
X5949188Y6664401D01*
X5936437Y6645198D01*
G37*
G36*
X7497368Y6633768D02*
G01*
X7608265Y6633768D01*
X7595565Y6654952D01*
X7582001Y6673596D01*
X7566914Y6691071D01*
X7550454Y6707225D01*
X7532674Y6721957D01*
X7513675Y6735114D01*
X7497368Y6744563D01*
G37*
G36*
X6303568Y6633768D02*
G01*
X6414465Y6633768D01*
X6401765Y6654952D01*
X6388201Y6673596D01*
X6373114Y6691071D01*
X6356654Y6707225D01*
X6338874Y6721957D01*
X6319875Y6735114D01*
X6303568Y6744563D01*
G37*
G36*
X8691168Y6633768D02*
G01*
X8802065Y6633768D01*
X8789365Y6654952D01*
X8775801Y6673596D01*
X8760714Y6691071D01*
X8744254Y6707225D01*
X8726474Y6721957D01*
X8707475Y6735114D01*
X8691168Y6744563D01*
G37*
G36*
X12137898Y7462926D02*
G01*
X12146432Y7463332D01*
X18669711Y7463332D01*
X18680379Y7463840D01*
X18683986Y7464247D01*
X18695619Y7466330D01*
X18699581Y7467295D01*
X18710757Y7470952D01*
X18714516Y7472425D01*
X18725134Y7477556D01*
X18728639Y7479588D01*
X18738494Y7486142D01*
X18741694Y7488580D01*
X18750534Y7496403D01*
X18753328Y7499299D01*
X18760998Y7508240D01*
X18763437Y7511491D01*
X18769787Y7521448D01*
X18771768Y7524953D01*
X18776696Y7535672D01*
X18778169Y7539431D01*
X18781572Y7550708D01*
X18782487Y7554671D01*
X18784366Y7566304D01*
X18784722Y7570317D01*
X18784976Y7583271D01*
X18784620Y7586522D01*
X18784620Y11912549D01*
X18783350Y11925249D01*
X18780912Y11937441D01*
X18779744Y11941556D01*
X18775578Y11953290D01*
X18773851Y11957151D01*
X18768060Y11968124D01*
X18765774Y11971731D01*
X18758408Y11981789D01*
X18755664Y11985040D01*
X18746927Y11993880D01*
X18743726Y11996674D01*
X18733820Y12004192D01*
X18730264Y12006529D01*
X18719393Y12012523D01*
X18715532Y12014301D01*
X18703899Y12018670D01*
X18699784Y12019889D01*
X18687643Y12022531D01*
X18683427Y12023140D01*
X18670930Y12024004D01*
X18663920Y12023648D01*
X12138304Y12023648D01*
X12134748Y12023394D01*
X12122556Y12021921D01*
X12118441Y12021159D01*
X12106706Y12018010D01*
X12102744Y12016638D01*
X12091568Y12011863D01*
X12087860Y12009932D01*
X12077446Y12003633D01*
X12074042Y12001195D01*
X12064644Y11993473D01*
X12061647Y11990628D01*
X12053417Y11981637D01*
X12050826Y11978386D01*
X12043968Y11968327D01*
X12041835Y11964771D01*
X12036450Y11953849D01*
X12034875Y11949988D01*
X12031116Y11938406D01*
X12030100Y11934393D01*
X12027966Y11922404D01*
X12027509Y11918238D01*
X12027103Y11906148D01*
X12027306Y11901576D01*
X12026290Y7571943D01*
X12026646Y7567574D01*
X12028525Y7554925D01*
X12029490Y7550658D01*
X12033199Y7538466D01*
X12034824Y7534351D01*
X12040311Y7522870D01*
X12042495Y7519060D01*
X12049607Y7508443D01*
X12052350Y7505039D01*
X12060986Y7495590D01*
X12064187Y7492593D01*
X12074093Y7484567D01*
X12077700Y7482078D01*
X12088723Y7475626D01*
X12092686Y7473696D01*
X12104522Y7468920D01*
X12108688Y7467600D01*
X12121134Y7464653D01*
X12125452Y7463993D01*
G37*
G36*
X6293358Y7544053D02*
G01*
X6309664Y7553502D01*
X6328664Y7566659D01*
X6346444Y7581392D01*
X6362903Y7597546D01*
X6377990Y7615021D01*
X6391554Y7633665D01*
X6404254Y7654848D01*
X6293358Y7654848D01*
G37*
G36*
X7493355Y7544053D02*
G01*
X7509662Y7553502D01*
X7528661Y7566659D01*
X7546441Y7581392D01*
X7562900Y7597546D01*
X7577988Y7615021D01*
X7591552Y7633665D01*
X7604252Y7654848D01*
X7493355Y7654848D01*
G37*
G36*
X8693353Y7544053D02*
G01*
X8709660Y7553502D01*
X8728659Y7566659D01*
X8746439Y7581392D01*
X8762898Y7597546D01*
X8777986Y7615021D01*
X8791549Y7633665D01*
X8804249Y7654848D01*
X8693353Y7654848D01*
G37*
G36*
X8430615Y7544104D02*
G01*
X8430615Y7654848D01*
X8319922Y7654848D01*
X8326221Y7643418D01*
X8338972Y7624216D01*
X8353298Y7606080D01*
X8369147Y7589266D01*
X8386267Y7573822D01*
X8404656Y7559852D01*
X8424164Y7547508D01*
G37*
G36*
X7230618Y7544104D02*
G01*
X7230618Y7654848D01*
X7119924Y7654848D01*
X7126224Y7643418D01*
X7138974Y7624216D01*
X7153300Y7606080D01*
X7169150Y7589266D01*
X7186269Y7573822D01*
X7204659Y7559852D01*
X7224166Y7547508D01*
G37*
G36*
X6030620Y7544155D02*
G01*
X6030620Y7654848D01*
X5919927Y7654848D01*
X5926226Y7643418D01*
X5938977Y7624216D01*
X5953302Y7606080D01*
X5969152Y7589266D01*
X5986272Y7573822D01*
X6004661Y7559852D01*
X6024168Y7547508D01*
G37*
G36*
X7119924Y7917586D02*
G01*
X7230618Y7917586D01*
X7230618Y8028279D01*
X7224166Y8024926D01*
X7204659Y8012582D01*
X7186269Y7998612D01*
X7169150Y7983169D01*
X7153300Y7966354D01*
X7138974Y7948218D01*
X7126224Y7929016D01*
G37*
G36*
X8319922Y7917586D02*
G01*
X8430615Y7917586D01*
X8430615Y8028279D01*
X8424164Y8024926D01*
X8404656Y8012582D01*
X8386267Y7998612D01*
X8369147Y7983169D01*
X8353298Y7966354D01*
X8338972Y7948218D01*
X8326221Y7929016D01*
G37*
G36*
X5919927Y7917586D02*
G01*
X6030620Y7917586D01*
X6030620Y8028279D01*
X6024168Y8024926D01*
X6004661Y8012582D01*
X5986272Y7998612D01*
X5969152Y7983169D01*
X5953302Y7966354D01*
X5938977Y7948218D01*
X5926226Y7929016D01*
G37*
G36*
X8693353Y7917586D02*
G01*
X8804249Y7917586D01*
X8791549Y7938770D01*
X8777986Y7957413D01*
X8762898Y7974888D01*
X8746439Y7991043D01*
X8728659Y8005775D01*
X8709660Y8018932D01*
X8693353Y8028381D01*
G37*
G36*
X7493355Y7917586D02*
G01*
X7604252Y7917586D01*
X7591552Y7938770D01*
X7577988Y7957413D01*
X7562900Y7974888D01*
X7546441Y7991043D01*
X7528661Y8005775D01*
X7509662Y8018932D01*
X7493355Y8028381D01*
G37*
G36*
X6293358Y7917586D02*
G01*
X6404254Y7917586D01*
X6391554Y7938770D01*
X6377990Y7957413D01*
X6362903Y7974888D01*
X6346444Y7991043D01*
X6328664Y8005775D01*
X6309664Y8018932D01*
X6293358Y8028381D01*
G37*
G36*
X21498560Y8503666D02*
G01*
X21498560Y8696960D01*
X21305266Y8696960D01*
X21319693Y8672525D01*
X21337371Y8646515D01*
X21356624Y8621674D01*
X21377452Y8598103D01*
X21399703Y8575852D01*
X21423274Y8555024D01*
X21448115Y8535771D01*
X21474125Y8518093D01*
G37*
G36*
X21986240Y8503666D02*
G01*
X22010674Y8518093D01*
X22036684Y8535771D01*
X22061525Y8555024D01*
X22085096Y8575852D01*
X22107347Y8598103D01*
X22128175Y8621674D01*
X22147428Y8646515D01*
X22165106Y8672525D01*
X22179534Y8696960D01*
X21986240Y8696960D01*
G37*
G36*
X21986240Y9184640D02*
G01*
X22179534Y9184640D01*
X22165106Y9209074D01*
X22147428Y9235084D01*
X22128175Y9259925D01*
X22107347Y9283496D01*
X22085096Y9305747D01*
X22061525Y9326575D01*
X22036684Y9345828D01*
X22010674Y9363506D01*
X21986240Y9377934D01*
G37*
G36*
X21305266Y9184640D02*
G01*
X21498560Y9184640D01*
X21498560Y9377934D01*
X21474125Y9363506D01*
X21448115Y9345828D01*
X21423274Y9326575D01*
X21399703Y9305747D01*
X21377452Y9283496D01*
X21356624Y9259925D01*
X21337371Y9235084D01*
X21319693Y9209074D01*
G37*
G36*
X6518046Y9385147D02*
G01*
X6520230Y9386265D01*
X6545681Y9401708D01*
X6570065Y9418828D01*
X6593281Y9437522D01*
X6615226Y9457740D01*
X6635750Y9479330D01*
X6654800Y9502190D01*
X6672325Y9526320D01*
X6688226Y9551517D01*
X6692900Y9560153D01*
X6518046Y9560153D01*
G37*
G36*
X8042046Y9385147D02*
G01*
X8044230Y9386265D01*
X8069681Y9401708D01*
X8094065Y9418828D01*
X8117281Y9437522D01*
X8139226Y9457740D01*
X8159750Y9479330D01*
X8178800Y9502190D01*
X8196325Y9526320D01*
X8212226Y9551517D01*
X8216900Y9560153D01*
X8042046Y9560153D01*
G37*
G36*
X6080353Y9385350D02*
G01*
X6080353Y9560153D01*
X5905398Y9560153D01*
X5917895Y9538766D01*
X5934608Y9514128D01*
X5952896Y9490608D01*
X5972759Y9468358D01*
X5993993Y9447428D01*
X6016548Y9428022D01*
X6040374Y9410090D01*
X6065316Y9393783D01*
G37*
G36*
X7604353Y9385350D02*
G01*
X7604353Y9560153D01*
X7429398Y9560153D01*
X7441895Y9538766D01*
X7458608Y9514128D01*
X7476896Y9490608D01*
X7496759Y9468358D01*
X7517993Y9447428D01*
X7540548Y9428022D01*
X7564374Y9410090D01*
X7589316Y9393783D01*
G37*
G36*
X9161983Y9469577D02*
G01*
X9161983Y9626142D01*
X9005417Y9626142D01*
X9016085Y9607702D01*
X9031681Y9584486D01*
X9048902Y9562439D01*
X9067647Y9541662D01*
X9087764Y9522256D01*
X9109151Y9504273D01*
X9131808Y9487865D01*
X9155531Y9473031D01*
G37*
G36*
X9549688Y9469577D02*
G01*
X9556140Y9473031D01*
X9579864Y9487865D01*
X9602520Y9504273D01*
X9623907Y9522256D01*
X9644024Y9541662D01*
X9662769Y9562439D01*
X9679990Y9584486D01*
X9695586Y9607702D01*
X9706254Y9626142D01*
X9549688Y9626142D01*
G37*
G36*
X5905398Y9997846D02*
G01*
X6080353Y9997846D01*
X6080353Y10172649D01*
X6065316Y10164216D01*
X6040374Y10147909D01*
X6016548Y10129977D01*
X5993993Y10110571D01*
X5972759Y10089642D01*
X5952896Y10067391D01*
X5934608Y10043871D01*
X5917895Y10019233D01*
G37*
G36*
X7429398Y9997846D02*
G01*
X7604353Y9997846D01*
X7604353Y10172649D01*
X7589316Y10164216D01*
X7564374Y10147909D01*
X7540548Y10129977D01*
X7517993Y10110571D01*
X7496759Y10089642D01*
X7476896Y10067391D01*
X7458608Y10043871D01*
X7441895Y10019233D01*
G37*
G36*
X8042046Y9997846D02*
G01*
X8216900Y9997846D01*
X8212226Y10006482D01*
X8196325Y10031679D01*
X8178800Y10055809D01*
X8159750Y10078669D01*
X8139226Y10100259D01*
X8117281Y10120477D01*
X8094065Y10139172D01*
X8069681Y10156291D01*
X8044230Y10171734D01*
X8042046Y10172852D01*
G37*
G36*
X6518046Y9997846D02*
G01*
X6692900Y9997846D01*
X6688226Y10006482D01*
X6672325Y10031679D01*
X6654800Y10055809D01*
X6635750Y10078669D01*
X6615226Y10100259D01*
X6593281Y10120477D01*
X6570065Y10139172D01*
X6545681Y10156291D01*
X6520230Y10171734D01*
X6518046Y10172852D01*
G37*
G36*
X9549688Y10013848D02*
G01*
X9706254Y10013848D01*
X9695586Y10032288D01*
X9679990Y10055504D01*
X9662769Y10077551D01*
X9644024Y10098328D01*
X9623907Y10117734D01*
X9602520Y10135717D01*
X9579864Y10152126D01*
X9556140Y10166959D01*
X9549688Y10170414D01*
G37*
G36*
X9005417Y10013848D02*
G01*
X9161983Y10013848D01*
X9161983Y10170414D01*
X9155531Y10166959D01*
X9131808Y10152126D01*
X9109151Y10135717D01*
X9087764Y10117734D01*
X9067647Y10098328D01*
X9048902Y10077551D01*
X9031681Y10055504D01*
X9016085Y10032288D01*
G37*
G36*
X20643342Y11894058D02*
G01*
X20659648Y11903506D01*
X20678648Y11916664D01*
X20696428Y11931396D01*
X20712887Y11947550D01*
X20727974Y11965025D01*
X20741538Y11983669D01*
X20754238Y12004852D01*
X20643342Y12004852D01*
G37*
G36*
X22943362Y11894058D02*
G01*
X22959669Y11903506D01*
X22978668Y11916664D01*
X22996448Y11931396D01*
X23012908Y11947550D01*
X23027995Y11965025D01*
X23041559Y11983669D01*
X23054259Y12004852D01*
X22943362Y12004852D01*
G37*
G36*
X6643319Y11894058D02*
G01*
X6659676Y11903506D01*
X6678625Y11916664D01*
X6696405Y11931396D01*
X6712915Y11947550D01*
X6728002Y11965025D01*
X6741566Y11983669D01*
X6754266Y12004852D01*
X6643319Y12004852D01*
G37*
G36*
X6380632Y11894159D02*
G01*
X6380632Y12004852D01*
X6269888Y12004852D01*
X6276187Y11993422D01*
X6288989Y11974220D01*
X6303314Y11956084D01*
X6319113Y11939270D01*
X6336284Y11923826D01*
X6354673Y11909856D01*
X6374130Y11897512D01*
G37*
G36*
X22680625Y11894159D02*
G01*
X22680625Y12004852D01*
X22569932Y12004852D01*
X22576231Y11993422D01*
X22588982Y11974220D01*
X22603307Y11956084D01*
X22619157Y11939270D01*
X22636276Y11923826D01*
X22654666Y11909856D01*
X22674173Y11897512D01*
G37*
G36*
X20380604Y11894159D02*
G01*
X20380604Y12004852D01*
X20269911Y12004852D01*
X20276210Y11993422D01*
X20288961Y11974220D01*
X20303286Y11956084D01*
X20319136Y11939270D01*
X20336256Y11923826D01*
X20354645Y11909856D01*
X20374152Y11897512D01*
G37*
G36*
X21797568Y11899036D02*
G01*
X21813875Y11908485D01*
X21832874Y11921642D01*
X21850654Y11936374D01*
X21867114Y11952528D01*
X21882201Y11970004D01*
X21895765Y11988647D01*
X21908465Y12009831D01*
X21797568Y12009831D01*
G37*
G36*
X21534831Y11899138D02*
G01*
X21534831Y12009831D01*
X21424138Y12009831D01*
X21430437Y11998401D01*
X21443188Y11979198D01*
X21457513Y11961063D01*
X21473363Y11944248D01*
X21490482Y11928805D01*
X21508872Y11914835D01*
X21528379Y11902490D01*
G37*
G36*
X5543092Y12245390D02*
G01*
X5543092Y12310364D01*
X5478170Y12310364D01*
X5484418Y12299035D01*
X5494172Y12285268D01*
X5505450Y12272670D01*
X5518048Y12261443D01*
X5531815Y12251639D01*
G37*
G36*
X5680811Y12245390D02*
G01*
X5692089Y12251639D01*
X5705856Y12261443D01*
X5718454Y12272670D01*
X5729732Y12285268D01*
X5739485Y12299035D01*
X5745734Y12310364D01*
X5680811Y12310364D01*
G37*
G36*
X23780800Y12245390D02*
G01*
X23792078Y12251639D01*
X23805845Y12261443D01*
X23818443Y12272670D01*
X23829721Y12285268D01*
X23839474Y12299035D01*
X23845723Y12310364D01*
X23780800Y12310364D01*
G37*
G36*
X23643082Y12245390D02*
G01*
X23643082Y12310364D01*
X23578159Y12310364D01*
X23584408Y12299035D01*
X23594161Y12285268D01*
X23605439Y12272670D01*
X23618037Y12261443D01*
X23631804Y12251639D01*
G37*
G36*
X20269911Y12267590D02*
G01*
X20380604Y12267590D01*
X20380604Y12378283D01*
X20374152Y12374930D01*
X20354645Y12362586D01*
X20336256Y12348616D01*
X20319136Y12333173D01*
X20303286Y12316358D01*
X20288961Y12298222D01*
X20276210Y12279020D01*
G37*
G36*
X22569932Y12267590D02*
G01*
X22680625Y12267590D01*
X22680625Y12378283D01*
X22674173Y12374930D01*
X22654666Y12362586D01*
X22636276Y12348616D01*
X22619157Y12333173D01*
X22603307Y12316358D01*
X22588982Y12298222D01*
X22576231Y12279020D01*
G37*
G36*
X6269888Y12267590D02*
G01*
X6380632Y12267590D01*
X6380632Y12378283D01*
X6374130Y12374930D01*
X6354673Y12362586D01*
X6336284Y12348616D01*
X6319113Y12333173D01*
X6303314Y12316358D01*
X6288989Y12298222D01*
X6276187Y12279020D01*
G37*
G36*
X22943362Y12267590D02*
G01*
X23054259Y12267590D01*
X23041559Y12288774D01*
X23027995Y12307417D01*
X23012908Y12324892D01*
X22996448Y12341047D01*
X22978668Y12355779D01*
X22959669Y12368936D01*
X22943362Y12378385D01*
G37*
G36*
X20643342Y12267590D02*
G01*
X20754238Y12267590D01*
X20741538Y12288774D01*
X20727974Y12307417D01*
X20712887Y12324892D01*
X20696428Y12341047D01*
X20678648Y12355779D01*
X20659648Y12368936D01*
X20643342Y12378385D01*
G37*
G36*
X6643319Y12267590D02*
G01*
X6754266Y12267590D01*
X6741566Y12288774D01*
X6728002Y12307417D01*
X6712915Y12324892D01*
X6696405Y12341047D01*
X6678625Y12355779D01*
X6659676Y12368936D01*
X6643319Y12378385D01*
G37*
G36*
X21424138Y12272568D02*
G01*
X21534831Y12272568D01*
X21534831Y12383262D01*
X21528379Y12379909D01*
X21508872Y12367564D01*
X21490482Y12353594D01*
X21473363Y12338151D01*
X21457513Y12321336D01*
X21443188Y12303201D01*
X21430437Y12283998D01*
G37*
G36*
X21797568Y12272568D02*
G01*
X21908465Y12272568D01*
X21895765Y12293752D01*
X21882201Y12312396D01*
X21867114Y12329871D01*
X21850654Y12346025D01*
X21832874Y12360757D01*
X21813875Y12373914D01*
X21797568Y12383363D01*
G37*
G36*
X23578159Y12448032D02*
G01*
X23643082Y12448032D01*
X23643082Y12513005D01*
X23631804Y12506756D01*
X23618037Y12496952D01*
X23605439Y12485725D01*
X23594161Y12473127D01*
X23584408Y12459360D01*
G37*
G36*
X5680811Y12448032D02*
G01*
X5745734Y12448032D01*
X5739485Y12459360D01*
X5729732Y12473127D01*
X5718454Y12485725D01*
X5705856Y12496952D01*
X5692089Y12506756D01*
X5680811Y12513005D01*
G37*
G36*
X5478170Y12448032D02*
G01*
X5543092Y12448032D01*
X5543092Y12513005D01*
X5531815Y12506756D01*
X5518048Y12496952D01*
X5505450Y12485725D01*
X5494172Y12473127D01*
X5484418Y12459360D01*
G37*
G36*
X23780800Y12448032D02*
G01*
X23845723Y12448032D01*
X23839474Y12459360D01*
X23829721Y12473127D01*
X23818443Y12485725D01*
X23805845Y12496952D01*
X23792078Y12506756D01*
X23780800Y12513005D01*
G37*

%LPD*%
D18*
G01*
X6161989Y7786217D03*
G01*
X7361986Y7786217D03*
G01*
X8561984Y7786217D03*
G01*
X6172200Y6502400D03*
G01*
X7366000Y6502400D03*
G01*
X8559800Y6502400D03*
G01*
X9761905Y6486271D03*
G01*
X10961979Y5886221D03*
G01*
X13261975Y5886221D03*
G01*
X14427200Y5892800D03*
G01*
X15561995Y5886221D03*
G01*
X16711980Y5886221D03*
G01*
X17861991Y5886221D03*
G01*
X19024600Y5892800D03*
G01*
X20161986Y5886221D03*
G01*
X21311971Y5886221D03*
G01*
X22811994Y12136221D03*
G01*
X21666200Y12141200D03*
G01*
X20511973Y12136221D03*
G01*
X22461982Y5886221D03*
G01*
X12111990Y5886221D03*
G01*
X6511975Y12136221D03*
D19*
G01*
X5611952Y12379198D03*
G01*
X5611952Y5479211D03*
G01*
X23711941Y5479211D03*
G01*
X23711941Y12379198D03*
D20*
G01*
X6299200Y9779000D03*
G01*
X7823200Y9779000D03*
D21*
G01*
X9355836Y9819995D03*
D22*
G01*
X21742400Y8940800D03*
D13*
G01*
X9762972Y7785989D03*
G01*
X7361986Y7786217D03*
G01*
X6161989Y7786217D03*
G01*
X6172200Y6502400D03*
G01*
X7366000Y6502400D03*
G01*
X8559800Y6502400D03*
G01*
X9761905Y6486271D03*
G01*
X10961979Y5886221D03*
G01*
X12111990Y5886221D03*
G01*
X13261975Y5886221D03*
G01*
X15561995Y5886221D03*
G01*
X14427200Y5892800D03*
G01*
X16711980Y5886221D03*
G01*
X17861991Y5886221D03*
G01*
X19024600Y5892800D03*
G01*
X20161986Y5886221D03*
G01*
X21311971Y5886221D03*
G01*
X22461982Y5886221D03*
G01*
X20511973Y12136221D03*
G01*
X21666200Y12141200D03*
G01*
X22811994Y12136221D03*
G01*
X6511975Y12136221D03*
D14*
G01*
X5611952Y12379198D03*
G01*
X5611952Y5479211D03*
G01*
X23711941Y12379198D03*
G01*
X23711941Y5479211D03*
D15*
G01*
X21742400Y8940800D03*
D16*
G01*
X9355836Y9819995D03*
D17*
G01*
X7823200Y9779000D03*
G01*
X6299200Y9779000D03*
D13*
G01*
X8561984Y7786217D03*
M02*
