<?xml version="1.0" encoding="utf-8"?>
<!DOCTYPE svg PUBLIC "-//W3C//DTD SVG 20010904//EN" "http://www.w3.org/TR/2001/REC-SVG-20010904/DTD/svg10.dtd">
<svg version="1.0" xmlns="http://www.w3.org/2000/svg" width="157px" height="153px" viewBox="0 0 157 153" preserveAspectRatio="xMidYMid meet">
 <g fill="#0c0701">
  <path d="M66.10 145.45 c-16.30 -1.90 -33.95 -11.45 -44.80 -24.20 -8.80 -10.40 -13.95 -21.60 -16.30 -35.50 -0.95 -5.35 -1.05 -7.55 -0.80 -12.60 1 -19.20 7.70 -34.55 20.80 -47.65 10.15 -10.15 22.20 -16.70 36.50 -19.80 5.95 -1.30 22.40 -1.35 28.35 -0.05 12.85 2.80 26.40 9.80 35.35 18.25 3.45 3.30 9.10 10.35 11.70 14.70 6.95 11.55 10.10 22.90 10.10 36.70 0 17.15 -5.40 32.05 -16.45 45.25 -15.60 18.65 -39.30 27.80 -64.45 24.90z m36.20 -12.90 c7.10 -3.35 12.50 -7.20 18.50 -13.25 10.30 -10.35 15.95 -21.30 18.50 -35.80 2.75 -16 -3.35 -35.55 -15.45 -49.50 -12.35 -14.20 -33.35 -23.45 -50.85 -22.30 -26.80 1.70 -50 19.65 -58.50 45.20 -3.35 10.20 -3.85 21.70 -1.30 31.85 1.15 4.70 3.45 11.05 4.25 11.90 0.20 0.20 2.20 -0.75 4.45 -2.10 3.50 -2.10 11.65 -5.55 13.15 -5.55 0.75 0 0.50 -1 -0.30 -1.30 -0.45 -0.20 -0.75 -0.95 -0.75 -2.05 0 -1.60 0.15 -1.80 2.90 -2.95 1.55 -0.70 3.95 -1.95 5.25 -2.80 l2.40 -1.55 -2.45 -1.65 c-3.45 -2.30 -5.60 -5.70 -5.60 -8.75 0 -1.45 0.30 -2.65 0.75 -3.15 1.25 -1.25 6.05 -2.75 12.40 -3.90 l6.10 -1.10 8 -8.10 c7.80 -7.85 12.25 -11.45 15.70 -12.60 0.95 -0.35 3.40 -0.60 5.45 -0.60 4.80 0 5.75 -0.55 11.55 -7.25 5.85 -6.65 6.70 -7.25 10.20 -7.25 2.50 0 2.90 0.15 4.05 1.55 0.75 0.85 1.65 2.35 2.05 3.30 0.85 2.05 1 7.10 0.25 9.60 -0.25 0.95 -0.40 1.80 -0.30 1.90 0.05 0.10 1.10 -0.20 2.30 -0.60 3.20 -1.15 5.30 -0.95 6.85 0.55 1.15 1.15 1.25 1.55 1.05 4.45 l-0.20 3.25 -4.35 4.45 c-4.60 4.65 -6.75 8.40 -8.60 14.65 -0.75 2.70 -0.75 3.25 0.05 8.50 0.60 3.65 0.90 8.60 0.95 13.90 l0 8.25 -3.60 9 c-2.85 7.20 -6.40 15.85 -9.50 23.15 -0.40 0.90 0.10 0.80 4.65 -1.35z"/>
 </g>
 <g fill="#ffffff">
  <path d="M96.30 132.15 c4.20 -9.90 11.70 -28.85 12.45 -31.35 0.95 -3.15 0.95 -9.05 -0.05 -16.05 -1.35 -9.90 -1.40 -11.80 -0.45 -15.05 1.80 -6.30 4 -10.05 8.50 -14.65 4.40 -4.55 5.40 -6.45 4.30 -8.50 -1.20 -2.15 -2.25 -2.20 -6.80 -0.35 -2.35 0.95 -4.25 1.65 -4.25 1.55 0 -0.15 0.45 -2.15 1 -4.50 0.55 -2.35 1 -4.95 1 -5.70 0 -3.30 -3.15 -8.05 -5.35 -8.05 -1.85 0 -3.60 1.50 -8.70 7.25 -5.80 6.70 -6.75 7.25 -11.55 7.25 -2.05 0 -4.50 0.25 -5.45 0.60 -3.45 1.15 -7.90 4.75 -15.70 12.60 l-8 8.10 -6.10 1.10 c-9 1.60 -13.15 3.35 -13.15 5.55 0 2.40 6.50 9.05 8.85 9.05 1.25 0 0.65 1.45 -1.20 3 -1.05 0.85 -3.80 2.45 -6.05 3.55 l-4.20 2 2.55 1.80 2.55 1.80 -6.10 2.05 c-6.35 2.10 -11.15 4.55 -15.10 7.55 l-2.30 1.75 -0.70 -1.40 c-5.35 -10.40 -7.60 -25.75 -5.60 -38.15 3.25 -19.65 15.40 -36.85 33 -46.60 30 -16.65 68.45 -7.20 87.10 21.40 6.95 10.70 9.95 20.25 10.50 33.25 0.25 5.60 0.10 8.35 -0.50 12 -2.45 13.85 -7.90 24.85 -17.30 34.65 -4.95 5.20 -8.70 8.20 -14.10 11.45 -3.80 2.25 -11.30 5.60 -13.75 6.15 l-1.65 0.35 2.30 -5.45z"/>
 </g>
</svg>
